<svg width="88" height="92" viewBox="0 0 88 92" fill="none" xmlns="http://www.w3.org/2000/svg">
<g clip-path="url(#clip0_214_24)">
<path d="M24.1396 91.0195V40.497C24.1396 40.1858 24.2647 39.8874 24.4874 39.6674C24.71 39.4473 25.012 39.3237 25.3269 39.3237H30.6251C30.94 39.3237 31.242 39.4473 31.4646 39.6674C31.6873 39.8874 31.8124 40.1858 31.8124 40.497V91.1512L24.1396 91.0195Z" fill="#191E28"/>
<path d="M41.6389 91.178V51.0058C41.6389 50.6946 41.764 50.3962 41.9867 50.1762C42.2093 49.9561 42.5113 49.8325 42.8262 49.8325H48.1244C48.4393 49.8325 48.7412 49.9561 48.9639 50.1762C49.1865 50.3962 49.3116 50.6946 49.3116 51.0058V91.0915L41.6389 91.178Z" fill="#191E28"/>
<path d="M10.5441 43.4498C10.4661 43.4497 10.3898 43.4274 10.3244 43.3855C10.259 43.3435 10.2072 43.2837 10.1754 43.2134C10.1437 43.143 10.1332 43.065 10.1453 42.9889C10.1573 42.9128 10.1915 42.8417 10.2435 42.7843L27.9588 23.2581L45.3931 32.9326L62.9312 3.06982L80.7975 17.6017C80.8385 17.635 80.8725 17.6759 80.8975 17.7222C80.9224 17.7684 80.9379 17.8191 80.9431 17.8713C80.9482 17.9235 80.9429 17.9762 80.9275 18.0263C80.912 18.0765 80.8867 18.1231 80.853 18.1636C80.8192 18.2041 80.7778 18.2376 80.7309 18.2623C80.6841 18.2869 80.6328 18.3022 80.58 18.3072C80.5272 18.3123 80.4739 18.307 80.4231 18.2917C80.3724 18.2763 80.3252 18.2513 80.2843 18.2179L63.1523 4.28338L45.692 34.0138L28.1279 24.2673L10.8449 43.3171C10.8071 43.3589 10.7607 43.3923 10.7089 43.4152C10.657 43.4381 10.6009 43.4498 10.5441 43.4498Z" fill="#191E28"/>
<path d="M10.4769 46.7753C12.5585 46.7753 14.246 45.1078 14.246 43.0507C14.246 40.9937 12.5585 39.3262 10.4769 39.3262C8.39535 39.3262 6.70789 40.9937 6.70789 43.0507C6.70789 45.1078 8.39535 46.7753 10.4769 46.7753Z" fill="#FFDB4B"/>
<path d="M27.9761 27.4872C30.0577 27.4872 31.7451 25.8197 31.7451 23.7627C31.7451 21.7056 30.0577 20.0381 27.9761 20.0381C25.8945 20.0381 24.207 21.7056 24.207 23.7627C24.207 25.8197 25.8945 27.4872 27.9761 27.4872Z" fill="#CCCCCC"/>
<path d="M45.4752 37.1979C47.5568 37.1979 49.2443 35.5304 49.2443 33.4734C49.2443 31.4163 47.5568 29.7488 45.4752 29.7488C43.3936 29.7488 41.7062 31.4163 41.7062 33.4734C41.7062 35.5304 43.3936 37.1979 45.4752 37.1979Z" fill="#E6E6E6"/>
<path d="M62.9744 7.4013C65.056 7.4013 66.7434 5.73375 66.7434 3.67673C66.7434 1.6197 65.056 -0.0478516 62.9744 -0.0478516C60.8928 -0.0478516 59.2053 1.6197 59.2053 3.67673C59.2053 5.73375 60.8928 7.4013 62.9744 7.4013Z" fill="#FFDB4B"/>
<path d="M76.6372 90.9988V32.7685C76.6372 32.0218 77.1688 31.4163 77.8245 31.4163H83.1227C83.7783 31.4163 84.3099 32.0216 84.3099 32.7685V91.1513L76.6372 90.9988Z" fill="#191E28"/>
<path d="M6.64038 91.0778V62.9651C6.64038 62.6046 7.17195 62.3123 7.82763 62.3123H13.1258C13.7815 62.3123 14.3131 62.6049 14.3131 62.9651V91.1511L6.64038 91.0778Z" fill="#191E28"/>
<path d="M59.1379 90.9792V24.8985C59.1379 24.0511 59.6695 23.364 60.3252 23.364H65.6234C66.2791 23.364 66.8107 24.0511 66.8107 24.8985V91.1514L59.1379 90.9792Z" fill="#FFDB4B"/>
</g>
<defs>
<clipPath id="clip0_214_24">
<rect width="88" height="91.4028" fill="white"/>
</clipPath>
</defs>
</svg>
