<svg width="324" height="28" viewBox="0 0 324 28" fill="none" xmlns="http://www.w3.org/2000/svg">
<path d="M8.78701 7.90589C8.78701 9.81989 8.75801 11.4729 8.67101 12.9229C8.55501 14.3729 8.43901 15.6489 8.23601 16.6929C8.03301 17.7659 7.80101 18.6939 7.51101 19.4189C7.22101 20.1439 6.84401 20.7239 6.43801 21.1589C6.03201 21.5939 5.56801 21.9129 5.04601 22.0869C4.52401 22.2899 3.97301 22.3769 3.33501 22.3769C2.84201 22.3769 2.37801 22.3479 2.00101 22.2899C1.59501 22.2319 1.21801 22.1159 0.812012 21.9709V17.9689C0.928012 18.0559 1.07301 18.0849 1.21801 18.1429C1.36301 18.1719 1.50801 18.2299 1.65301 18.2299C1.79801 18.2589 1.91401 18.2879 2.05901 18.2879C2.17501 18.3169 2.26201 18.3169 2.32001 18.3169C2.58101 18.3169 2.81301 18.2589 3.04501 18.2009C3.24801 18.1139 3.45101 17.9689 3.62501 17.7369C3.79901 17.5049 3.97301 17.1569 4.08901 16.7219C4.23401 16.2869 4.32101 15.6779 4.43701 14.9529C4.52401 14.1989 4.58201 13.2999 4.64001 12.2269C4.66901 11.1249 4.69801 9.84889 4.69801 8.31189V1.17789H19.227V21.9999H14.877V4.77389H8.75801L8.78701 7.90589Z" fill="black"/>
<path d="M26.8164 16.0839H26.8744L32.5004 6.57189H36.7054V21.9999H32.7034V12.6909H32.6454L27.1934 21.9999H22.8144V6.57189H26.8164V16.0839Z" fill="black"/>
<path d="M40.8039 18.7519C41.1809 18.0559 41.4999 17.3019 41.7609 16.5189C41.9929 15.7359 42.1959 14.9529 42.3409 14.1699C42.5149 13.3869 42.6019 12.6039 42.6889 11.8209C42.7469 11.0959 42.8049 10.3709 42.8339 9.70389C42.8629 9.03689 42.8629 8.42789 42.8629 7.87689V6.57189H54.9269V18.7519H56.8699V25.7119H53.0999V21.9999H42.9789V25.7119H39.2089V18.7519H40.8039ZM46.3429 9.81989V10.8639C46.3429 11.2699 46.3139 11.7339 46.2849 12.2559C46.2559 12.7489 46.1979 13.2999 46.1399 13.8509C46.0819 14.4309 45.9949 14.9819 45.8789 15.5619C45.7629 16.1129 45.6179 16.6639 45.4439 17.2149C45.2699 17.7659 45.0669 18.2879 44.8349 18.7519H50.9249V9.81989H46.3429Z" fill="black"/>
<path d="M61.9354 15.5329C61.9354 15.6779 61.9644 15.8519 61.9934 16.0839C61.9934 16.3449 62.0514 16.5769 62.1384 16.8669C62.2254 17.1279 62.3704 17.4179 62.5154 17.6789C62.6604 17.9689 62.8924 18.2299 63.1824 18.4329C63.4434 18.6649 63.7624 18.8679 64.1684 18.9839C64.5454 19.1289 65.0094 19.2159 65.5604 19.2159C65.8504 19.2159 66.1404 19.1579 66.4014 19.0709C66.6914 19.0129 66.9234 18.8969 67.1844 18.7229C67.4164 18.5779 67.6194 18.3749 67.7934 18.1719C67.9674 17.9399 68.0834 17.7079 68.1704 17.4179H72.3174C72.3174 17.7079 72.2594 18.0269 72.1434 18.3749C71.9984 18.7519 71.8244 19.0999 71.5924 19.4769C71.3314 19.8539 71.0124 20.2309 70.6354 20.5789C70.2584 20.9269 69.8234 21.2749 69.2724 21.5359C68.7504 21.8259 68.1704 22.0289 67.5324 22.2029C66.8654 22.3769 66.1404 22.4639 65.3284 22.4639C64.3134 22.4639 63.3274 22.3189 62.4574 21.9999C61.5294 21.7099 60.7464 21.2169 60.0794 20.5499C59.4124 19.8829 58.8614 19.0129 58.4844 17.9689C58.1074 16.8959 57.9044 15.6199 57.9044 14.1119C57.9044 13.0679 58.0494 12.0529 58.3394 11.0959C58.6004 10.1099 59.0354 9.26889 59.6154 8.54389C60.1954 7.78989 60.9784 7.20989 61.9064 6.77489C62.8054 6.31089 63.9074 6.10789 65.2124 6.10789C66.5754 6.10789 67.7354 6.33989 68.6634 6.77489C69.5914 7.23889 70.3454 7.87689 70.9254 8.68889C71.5054 9.50089 71.9114 10.5159 72.1434 11.6759C72.3754 12.8359 72.5204 14.1119 72.5204 15.5329H61.9354ZM68.3444 12.8649C68.3444 12.1979 68.2574 11.6179 68.0544 11.1539C67.8514 10.7189 67.5904 10.3419 67.3004 10.0809C66.9814 9.81989 66.6334 9.61689 66.2564 9.50089C65.9084 9.41389 65.5604 9.35589 65.2124 9.35589C64.8934 9.35589 64.5164 9.41389 64.1684 9.50089C63.7914 9.61689 63.4434 9.81989 63.1534 10.0809C62.8344 10.3419 62.5734 10.7189 62.3994 11.1539C62.1674 11.6179 62.0804 12.1979 62.0804 12.8649H68.3444Z" fill="black"/>
<path d="M78.8907 8.77589H78.9487C79.2097 8.31189 79.4997 7.90589 79.8187 7.55789C80.1087 7.23889 80.4567 6.94889 80.8047 6.74589C81.1817 6.54289 81.5877 6.36889 82.0517 6.28189C82.4867 6.16589 82.9797 6.10789 83.5597 6.10789C84.0237 6.10789 84.5167 6.16589 85.0097 6.28189C85.5027 6.39789 85.9957 6.57189 86.4887 6.83289C86.9527 7.06489 87.4167 7.41289 87.8227 7.78989C88.2577 8.19589 88.6347 8.71789 88.9537 9.29789C89.2727 9.87789 89.5337 10.5449 89.7077 11.3279C89.9107 12.1109 89.9977 12.9809 89.9977 13.9959C89.9977 15.2429 89.8817 16.4029 89.5917 17.4179C89.3307 18.4619 88.9247 19.3609 88.3737 20.1149C87.8227 20.8399 87.1557 21.4199 86.3437 21.8549C85.5027 22.2609 84.5457 22.4639 83.4147 22.4639C83.0377 22.4639 82.6317 22.4349 82.2547 22.3479C81.8487 22.2899 81.4717 22.1449 81.0947 21.9709C80.6887 21.7969 80.3407 21.5359 80.0217 21.2459C79.6737 20.9269 79.3837 20.5499 79.1227 20.0859H79.0647V27.9739H75.0627V6.57189H78.8907V8.77589ZM82.3707 9.70389C81.7327 9.70389 81.1817 9.84889 80.7467 10.1099C80.3117 10.3999 79.9637 10.7479 79.7027 11.1829C79.4127 11.6179 79.2387 12.1109 79.0937 12.6619C78.9777 13.2129 78.9197 13.7349 78.9197 14.2859C78.9197 14.5759 78.9197 14.8949 78.9777 15.2429C79.0067 15.5909 79.0647 15.9389 79.1517 16.2869C79.2677 16.6349 79.3837 16.9829 79.5577 17.3019C79.7027 17.6499 79.9057 17.9399 80.1667 18.2009C80.4277 18.4329 80.7467 18.6359 81.0947 18.8099C81.4427 18.9549 81.8777 19.0419 82.3707 19.0419C82.8637 19.0419 83.2987 18.9549 83.6467 18.8099C83.9947 18.6359 84.3137 18.4329 84.5747 18.2009C84.8067 17.9399 85.0387 17.6499 85.2127 17.3019C85.3577 16.9829 85.4737 16.6349 85.5897 16.2869C85.6767 15.9389 85.7347 15.5909 85.7927 15.2429C85.8217 14.8949 85.8217 14.5759 85.8217 14.2859C85.8217 13.7349 85.7637 13.2129 85.6477 12.6619C85.5027 12.1109 85.3287 11.6179 85.0677 11.1829C84.7777 10.7479 84.4297 10.3999 83.9947 10.1099C83.5307 9.84889 83.0087 9.70389 82.3707 9.70389Z" fill="black"/>
<path d="M109.939 22.4059C108.315 22.4059 106.894 22.1159 105.676 21.5069C104.429 20.9269 103.414 20.1439 102.602 19.1579C101.79 18.1719 101.181 17.0409 100.775 15.7359C100.369 14.4309 100.166 13.0679 100.166 11.6469C100.166 10.2259 100.369 8.86289 100.775 7.55789C101.181 6.25289 101.79 5.12189 102.602 4.10689C103.414 3.12089 104.429 2.33789 105.676 1.72889C106.894 1.14889 108.315 0.858887 109.939 0.858887C110.925 0.858887 111.882 1.00389 112.839 1.29389C113.767 1.58389 114.608 2.01889 115.391 2.56989C116.145 3.14989 116.783 3.84589 117.305 4.68689C117.798 5.52789 118.117 6.48489 118.262 7.55789H116.29C116.116 6.77489 115.826 6.04989 115.449 5.41189C115.043 4.80289 114.55 4.28089 113.999 3.84589C113.419 3.41089 112.781 3.09189 112.114 2.85989C111.418 2.65689 110.693 2.54089 109.939 2.54089C108.576 2.54089 107.387 2.80189 106.401 3.32389C105.415 3.84589 104.603 4.54189 103.994 5.38289C103.356 6.25289 102.892 7.23889 102.602 8.31189C102.283 9.41389 102.138 10.5159 102.138 11.6469C102.138 12.7779 102.283 13.9089 102.602 14.9819C102.892 16.0549 103.356 17.0409 103.994 17.8819C104.603 18.7519 105.415 19.4479 106.401 19.9699C107.387 20.4919 108.576 20.7529 109.939 20.7529C110.896 20.7529 111.766 20.5789 112.549 20.2309C113.332 19.8829 113.999 19.4189 114.55 18.8099C115.101 18.2009 115.565 17.5049 115.913 16.6929C116.261 15.9099 116.493 15.0399 116.58 14.1119H118.552C118.407 15.3879 118.117 16.5479 117.653 17.5629C117.189 18.5779 116.58 19.4479 115.855 20.1729C115.13 20.8979 114.26 21.4489 113.274 21.8259C112.259 22.2029 111.157 22.4059 109.939 22.4059Z" fill="black"/>
<path d="M119.454 7.03589H132.359V8.57289H126.82V21.9999H124.993V8.57289H119.454V7.03589Z" fill="black"/>
<path d="M138.286 22.4059C137.59 22.4059 136.952 22.3189 136.343 22.1739C135.734 21.9999 135.183 21.7389 134.748 21.3619C134.284 21.0139 133.936 20.5499 133.675 19.9989C133.414 19.4479 133.269 18.8099 133.269 18.0559C133.269 17.0119 133.501 16.1999 133.965 15.5909C134.429 15.0109 135.038 14.5759 135.821 14.2569C136.575 13.9379 137.445 13.7349 138.402 13.5899L141.302 13.2419C141.679 13.2129 141.998 13.1549 142.317 13.0969C142.607 13.0389 142.839 12.9229 143.042 12.7779C143.245 12.6329 143.39 12.4589 143.506 12.1979C143.593 11.9369 143.651 11.6179 143.651 11.2119C143.651 10.6029 143.564 10.0809 143.361 9.67489C143.158 9.29789 142.868 8.97889 142.52 8.74689C142.143 8.51489 141.737 8.34089 141.273 8.25389C140.78 8.16689 140.287 8.13789 139.736 8.13789C138.576 8.13789 137.619 8.39889 136.894 8.94989C136.169 9.50089 135.763 10.3999 135.734 11.6179H133.907C134.023 9.84889 134.632 8.57289 135.734 7.78989C136.807 7.00689 138.228 6.60089 139.968 6.60089C140.635 6.60089 141.273 6.65889 141.94 6.77489C142.607 6.91989 143.187 7.15189 143.709 7.49989C144.231 7.84789 144.666 8.34089 144.985 8.94989C145.304 9.58789 145.478 10.3999 145.478 11.4149V19.3609C145.478 20.0859 145.826 20.4629 146.551 20.4629C146.783 20.4629 146.986 20.4339 147.131 20.3469V21.8839L146.58 21.9709C146.406 21.9999 146.203 21.9999 145.942 21.9999C145.478 21.9999 145.101 21.9419 144.84 21.7969C144.55 21.6809 144.318 21.5069 144.173 21.2749C144.028 21.0429 143.912 20.7529 143.883 20.4339C143.825 20.1149 143.796 19.7669 143.796 19.3899H143.738C143.419 19.8829 143.071 20.2889 142.752 20.6659C142.404 21.0429 142.027 21.3619 141.621 21.6229C141.186 21.8839 140.722 22.0579 140.171 22.2029C139.62 22.3479 139.011 22.4059 138.286 22.4059ZM138.431 20.8979C139.127 20.8979 139.794 20.7819 140.432 20.5789C141.07 20.3759 141.621 20.0569 142.114 19.6509C142.578 19.2449 142.955 18.7519 143.245 18.1719C143.506 17.5919 143.651 16.9249 143.651 16.1999V13.8219H143.593C143.477 14.0249 143.245 14.1989 142.926 14.2859C142.607 14.3729 142.317 14.4599 142.056 14.4889C141.273 14.6339 140.49 14.7499 139.678 14.8369C138.837 14.9529 138.083 15.1269 137.416 15.3299C136.749 15.5329 136.198 15.8519 135.763 16.2579C135.328 16.6639 135.096 17.2149 135.096 17.9399C135.096 18.4039 135.183 18.8099 135.386 19.1579C135.56 19.5349 135.792 19.8249 136.111 20.0859C136.43 20.3469 136.778 20.5499 137.184 20.6949C137.561 20.8399 137.996 20.8979 138.431 20.8979Z" fill="black"/>
<path d="M147.35 7.03589H160.255V8.57289H154.716V21.9999H152.889V8.57289H147.35V7.03589Z" fill="black"/>
<path d="M163.919 13.0389H169.284C170.734 13.0389 171.894 13.4159 172.735 14.1989C173.576 14.9819 174.011 16.0549 174.011 17.4759C174.011 18.8969 173.576 19.9989 172.735 20.7819C171.894 21.5939 170.734 21.9999 169.284 21.9999H162.092V7.03589H163.919V13.0389ZM168.849 20.4629C169.893 20.4629 170.705 20.2019 171.314 19.7089C171.894 19.2159 172.184 18.4619 172.184 17.4759C172.184 16.4899 171.894 15.7649 171.314 15.2719C170.705 14.8079 169.893 14.5759 168.849 14.5759H163.919V20.4629H168.849Z" fill="black"/>
<path d="M191.363 7.03589C192.9 7.03589 194.06 7.32589 194.901 7.93489C195.742 8.54389 196.148 9.41389 196.148 10.5739C196.148 11.4729 195.916 12.1979 195.481 12.8069C195.017 13.4159 194.379 13.8219 193.567 14.0539V14.1119C194.553 14.2859 195.336 14.6629 195.887 15.2719C196.438 15.8809 196.728 16.7219 196.728 17.8239C196.728 19.1869 196.264 20.2019 195.365 20.9269C194.466 21.6519 193.132 21.9999 191.363 21.9999H184.519V7.03589H191.363ZM191.16 13.5029C192.204 13.5029 192.987 13.2709 193.538 12.8359C194.06 12.4009 194.321 11.7919 194.321 11.0379C194.321 9.38489 193.277 8.57289 191.16 8.57289H186.346V13.5029H191.16ZM191.16 20.4629C192.436 20.4629 193.393 20.2309 194.002 19.7379C194.611 19.2739 194.901 18.5779 194.901 17.6209C194.901 16.7509 194.611 16.0839 194.002 15.6199C193.393 15.1559 192.436 14.9239 191.16 14.9239H186.346V20.4629H191.16Z" fill="black"/>
<path d="M205.851 22.4059C204.72 22.4059 203.705 22.2029 202.835 21.7679C201.936 21.3619 201.211 20.8109 200.602 20.0859C199.993 19.3609 199.558 18.5199 199.239 17.5629C198.92 16.6059 198.775 15.5909 198.775 14.5179C198.775 13.4449 198.92 12.4299 199.239 11.4729C199.558 10.5159 199.993 9.67489 200.602 8.94989C201.211 8.22489 201.936 7.67389 202.835 7.23889C203.705 6.80389 204.72 6.60089 205.851 6.60089C206.982 6.60089 207.997 6.80389 208.896 7.23889C209.766 7.67389 210.491 8.22489 211.1 8.94989C211.709 9.67489 212.144 10.5159 212.463 11.4729C212.782 12.4299 212.927 13.4449 212.927 14.5179C212.927 15.5909 212.782 16.6059 212.463 17.5629C212.144 18.5199 211.709 19.3609 211.1 20.0859C210.491 20.8109 209.766 21.3619 208.896 21.7679C207.997 22.2029 206.982 22.4059 205.851 22.4059ZM205.851 20.8979C206.721 20.8979 207.475 20.7239 208.142 20.3469C208.809 19.9699 209.36 19.5059 209.795 18.8969C210.23 18.2879 210.549 17.6209 210.781 16.8379C210.984 16.0839 211.1 15.3009 211.1 14.5179C211.1 13.7349 210.984 12.9519 210.781 12.1689C210.549 11.4149 210.23 10.7479 209.795 10.1389C209.36 9.52989 208.809 9.06589 208.142 8.68889C207.475 8.31189 206.721 8.13789 205.851 8.13789C204.981 8.13789 204.227 8.31189 203.56 8.68889C202.893 9.06589 202.371 9.52989 201.936 10.1389C201.501 10.7479 201.153 11.4149 200.95 12.1689C200.718 12.9519 200.602 13.7349 200.602 14.5179C200.602 15.3009 200.718 16.0839 200.95 16.8379C201.153 17.6209 201.501 18.2879 201.936 18.8969C202.371 19.5059 202.893 19.9699 203.56 20.3469C204.227 20.7239 204.981 20.8979 205.851 20.8979Z" fill="black"/>
<path d="M215.846 20.4629C216.571 19.1289 217.093 17.5339 217.412 15.7069C217.731 13.8799 217.905 11.6469 217.905 9.00789V7.03589H227.968V20.4629H230.201V26.7559H228.374V21.9999H215.904V26.7559H214.077V20.4629H215.846ZM219.674 8.57289V9.61689C219.674 12.1399 219.5 14.2859 219.123 16.0839C218.746 17.9109 218.282 19.3609 217.731 20.4629H226.141V8.57289H219.674Z" fill="black"/>
<path d="M233.98 19.8539L242.245 7.03589H244.507V21.9999H242.68V9.18189L234.415 21.9999H232.153V7.03589H233.98V19.8539Z" fill="black"/>
<path d="M246.188 7.03589H259.093V8.57289H253.554V21.9999H251.727V8.57289H246.188V7.03589Z" fill="black"/>
<path d="M266.817 22.4059C265.628 22.4059 264.584 22.2029 263.743 21.7679C262.902 21.3619 262.206 20.7819 261.655 20.0569C261.104 19.3319 260.727 18.5199 260.466 17.5629C260.205 16.6059 260.06 15.5909 260.06 14.5179C260.06 13.5319 260.205 12.5749 260.466 11.6179C260.727 10.6609 261.104 9.81989 261.655 9.06589C262.206 8.34089 262.902 7.73189 263.743 7.26789C264.584 6.83289 265.628 6.60089 266.817 6.60089C268.006 6.60089 269.05 6.83289 269.891 7.32589C270.732 7.81889 271.428 8.42789 271.979 9.21089C272.501 9.99389 272.878 10.8929 273.11 11.9079C273.342 12.9229 273.429 13.9669 273.4 15.0109H261.887C261.887 15.6779 261.974 16.3739 262.177 17.0699C262.351 17.7659 262.641 18.4039 263.047 18.9549C263.453 19.5059 263.975 19.9699 264.584 20.3469C265.193 20.7239 265.947 20.8979 266.817 20.8979C268.151 20.8979 269.195 20.5499 269.949 19.8539C270.703 19.1579 271.225 18.2299 271.515 17.0699H273.342C272.965 18.7809 272.24 20.0859 271.225 21.0139C270.181 21.9419 268.702 22.4059 266.817 22.4059ZM271.573 13.4739C271.544 12.7779 271.428 12.1109 271.225 11.4729C270.993 10.8349 270.674 10.2549 270.268 9.76189C269.862 9.26889 269.369 8.89189 268.789 8.57289C268.209 8.28289 267.542 8.13789 266.817 8.13789C266.063 8.13789 265.396 8.28289 264.816 8.57289C264.236 8.89189 263.743 9.26889 263.337 9.76189C262.931 10.2549 262.612 10.8349 262.38 11.4729C262.119 12.1399 261.974 12.8069 261.887 13.4739H271.573Z" fill="black"/>
<path d="M275.678 22.1449C275.591 22.1449 275.475 22.1449 275.33 22.1159L274.924 22.0579C274.779 22.0289 274.634 22.0289 274.518 21.9709C274.373 21.9419 274.286 21.9419 274.228 21.9129V20.3179C274.373 20.3759 274.605 20.4339 274.924 20.4629C275.243 20.4919 275.504 20.5209 275.707 20.5209C275.91 20.5209 276.113 20.4919 276.345 20.4339C276.577 20.3759 276.809 20.2019 277.041 19.9409C277.273 19.6799 277.505 19.2739 277.708 18.7229C277.911 18.1719 278.114 17.3889 278.259 16.3739C278.404 15.3879 278.549 14.1409 278.636 12.6039C278.723 11.0959 278.781 9.23989 278.781 7.03589H288.786V21.9999H286.959V8.57289H280.55C280.55 10.7479 280.492 12.5749 280.376 14.0829C280.231 15.5909 280.057 16.8379 279.825 17.8529C279.593 18.8679 279.332 19.6509 279.013 20.2309C278.694 20.8109 278.375 21.2459 278.027 21.5069C277.65 21.7969 277.273 21.9709 276.896 22.0579C276.49 22.1159 276.084 22.1449 275.678 22.1449Z" fill="black"/>
<path d="M298.253 22.4059C297.064 22.4059 296.02 22.2029 295.179 21.7679C294.338 21.3619 293.642 20.7819 293.091 20.0569C292.54 19.3319 292.163 18.5199 291.902 17.5629C291.641 16.6059 291.496 15.5909 291.496 14.5179C291.496 13.5319 291.641 12.5749 291.902 11.6179C292.163 10.6609 292.54 9.81989 293.091 9.06589C293.642 8.34089 294.338 7.73189 295.179 7.26789C296.02 6.83289 297.064 6.60089 298.253 6.60089C299.442 6.60089 300.486 6.83289 301.327 7.32589C302.168 7.81889 302.864 8.42789 303.415 9.21089C303.937 9.99389 304.314 10.8929 304.546 11.9079C304.778 12.9229 304.865 13.9669 304.836 15.0109H293.323C293.323 15.6779 293.41 16.3739 293.613 17.0699C293.787 17.7659 294.077 18.4039 294.483 18.9549C294.889 19.5059 295.411 19.9699 296.02 20.3469C296.629 20.7239 297.383 20.8979 298.253 20.8979C299.587 20.8979 300.631 20.5499 301.385 19.8539C302.139 19.1579 302.661 18.2299 302.951 17.0699H304.778C304.401 18.7809 303.676 20.0859 302.661 21.0139C301.617 21.9419 300.138 22.4059 298.253 22.4059ZM303.009 13.4739C302.98 12.7779 302.864 12.1109 302.661 11.4729C302.429 10.8349 302.11 10.2549 301.704 9.76189C301.298 9.26889 300.805 8.89189 300.225 8.57289C299.645 8.28289 298.978 8.13789 298.253 8.13789C297.499 8.13789 296.832 8.28289 296.252 8.57289C295.672 8.89189 295.179 9.26889 294.773 9.76189C294.367 10.2549 294.048 10.8349 293.816 11.4729C293.555 12.1399 293.41 12.8069 293.323 13.4739H303.009Z" fill="black"/>
<path d="M315.263 19.9409L320.773 7.03589H323.209V21.9999H321.382V9.67489H321.295L316.046 21.9999H314.422L309.173 9.67489H309.086V21.9999H307.259V7.03589H309.695L315.263 19.9409Z" fill="black"/>
</svg>
