<svg width="71" height="70" viewBox="0 0 71 70" fill="none" xmlns="http://www.w3.org/2000/svg">
<path d="M65.6728 43.4852L44.819 64.8372L41.2302 57.5639L58.3146 40.0688L65.6728 43.4852Z" fill="#191E28"/>
<path d="M63.231 48.3904L49.667 62.2829L43.5926 53.8981L54.7066 42.5186L63.231 48.3904Z" fill="#191E28"/>
<path d="M24.9041 43.9585C24.9041 43.9585 30.2394 49.6442 34.8246 54.5907C35.4633 55.2973 35.9057 56.1589 36.1079 57.0897C36.3101 58.0205 36.265 58.988 35.977 59.8959C34.9176 63.4546 36.4698 69.7315 36.4698 69.7315C31.4028 65.4064 17.7867 61.626 24.9041 43.9585Z" fill="#191E28"/>
<path d="M44.3399 24.0764C44.3399 24.0764 50.1488 29.2775 55.2021 33.7423C55.9237 34.3636 56.7953 34.7853 57.7303 34.9654C58.6653 35.1455 59.6312 35.0777 60.5319 34.7688C64.0523 33.6246 70.3867 35.0289 70.3867 35.0289C65.9219 30.0604 61.8185 16.532 44.3399 24.0764Z" fill="#191E28"/>
<path d="M31.0087 10.3674C19.5826 0.419525 7.24222 -2.67652 2.26555 2.42881C-2.71112 7.53414 0.672357 19.7733 10.8912 30.9694L36.24 58.7271C36.7378 59.2717 37.3415 59.709 38.0142 60.0122C38.6869 60.3154 39.4144 60.4782 40.1522 60.4905C40.89 60.5028 41.6225 60.3644 42.3049 60.0838C42.9874 59.8031 43.6054 59.3862 44.1211 58.8585L59.6698 42.9293C60.1854 42.401 60.5878 41.7731 60.8522 41.0838C61.1166 40.3946 61.2375 39.6587 61.2075 38.9211C61.1776 38.1835 60.9973 37.4598 60.6778 36.7943C60.3583 36.1288 59.9063 35.5356 59.3495 35.0509L31.0087 10.3674Z" fill="#FFCC00"/>
<path opacity="0.1" d="M44.4467 54.673C44.5871 54.7429 44.7091 54.845 44.8027 54.9709C44.8964 55.0967 44.959 55.2429 44.9857 55.3975C45.0124 55.5521 45.0022 55.7108 44.9561 55.8608C44.9101 56.0107 44.8293 56.1477 44.7204 56.2607C43.0533 57.9853 39.8888 57.5473 37.8056 55.2998L12.6567 28.1991C7.60616 22.7544 4.0119 17.2494 2.1477 12.6258C1.60021 11.2571 3.51642 10.2963 4.29112 11.5308C6.81504 15.47 10.5708 20.173 15.2765 25.0757L41.7503 52.6226C42.5294 53.4506 43.4406 54.1435 44.4467 54.673Z" fill="white"/>
<path opacity="0.3" d="M21.6162 30.8386C26.9776 30.7319 31.2375 26.2991 31.1308 20.9376C31.0241 15.5762 26.5913 11.3163 21.2298 11.423C15.8683 11.5297 11.6085 15.9625 11.7152 21.324C11.8219 26.6855 16.2547 30.9453 21.6162 30.8386Z" fill="black"/>
<path d="M28.7459 26.8083C32.0533 22.5871 31.3126 16.4841 27.0915 13.1767C22.8704 9.86928 16.7673 10.61 13.4599 14.8311C10.1525 19.0522 10.8932 25.1553 15.1143 28.4627C19.3354 31.7701 25.4385 31.0294 28.7459 26.8083Z" fill="#191E28"/>
<g opacity="0.2">
<path d="M14.8193 14.6819C13.9832 15.5307 13.3309 16.5427 12.9031 17.6547L17.1078 28.6428C18.8064 29.5059 20.7392 29.7941 22.6156 29.4641L16.4563 13.3569C15.8584 13.7297 15.3086 14.1747 14.8193 14.6819Z" fill="white"/>
<path d="M17.1024 12.9981L23.3437 29.3105C24.3039 29.0592 25.2146 28.6474 26.0374 28.0923L19.9301 12.1084C18.9431 12.2388 17.9863 12.5398 17.1024 12.9981Z" fill="white"/>
</g>
</svg>
