<svg width="70" height="97" viewBox="0 0 70 97" fill="none" xmlns="http://www.w3.org/2000/svg">
<path d="M15.9982 94.2795H8.62731C7.48083 94.2861 6.37608 93.8497 5.54361 93.0614C4.71113 92.2731 4.21524 91.1938 4.15941 90.0486L0.00246581 17.5302C-0.0174707 16.9322 0.0836526 16.3364 0.299758 15.7785C0.515864 15.2206 0.842494 14.7122 1.26004 14.2837C1.67758 13.8552 2.17741 13.5155 2.72953 13.285C3.28164 13.0546 3.87463 12.9381 4.4729 12.9425H12.9703L15.9982 94.2795Z" fill="#191E28"/>
<path d="M52.3963 17.5302L50.2197 90.0486C50.1632 91.194 49.6668 92.2733 48.8339 93.0616C48.001 93.8498 46.896 94.2861 45.7493 94.2795H13.164C10.7657 94.2795 7.93917 92.4113 7.84232 90.0486L5.66826 17.5302C5.64798 16.9324 5.74877 16.3366 5.96459 15.7787C6.18041 15.2209 6.50681 14.7124 6.92415 14.2838C7.34149 13.8553 7.84117 13.5156 8.39315 13.2851C8.94512 13.0546 9.538 12.9381 10.1362 12.9425H47.9233C48.5218 12.9377 49.1151 13.054 49.6675 13.2843C50.2199 13.5146 50.72 13.8542 51.1379 14.2828C51.5557 14.7113 51.8825 15.2199 52.0988 15.7779C52.315 16.336 52.4163 16.932 52.3963 17.5302Z" fill="white"/>
<path d="M14.6754 17.9507H12.9295C12.8153 17.9501 12.7022 17.9723 12.5967 18.0161C12.4912 18.0598 12.3955 18.1243 12.3153 18.2056C12.1925 18.3272 12.1086 18.4826 12.0743 18.652C12.04 18.8214 12.0569 18.9971 12.1227 19.1569C12.1886 19.3167 12.3004 19.4534 12.4441 19.5494C12.5877 19.6455 12.7567 19.6967 12.9295 19.6966H44.9159C45.1464 19.6952 45.3671 19.6029 45.5298 19.4396C45.6926 19.2764 45.7843 19.0554 45.785 18.8249C45.7853 18.7104 45.7631 18.597 45.7196 18.4911C45.6761 18.3853 45.6122 18.289 45.5315 18.2078C45.4508 18.1266 45.3548 18.0621 45.2492 18.018C45.1436 17.9739 45.0303 17.951 44.9159 17.9507H14.6754Z" fill="#FFCC00"/>
<path d="M44.5437 46.491H13.5183C13.233 46.4912 12.9586 46.3809 12.7529 46.1832C12.5471 45.9855 12.4259 45.7159 12.4147 45.4307L11.6501 25.245C11.6446 25.0969 11.669 24.9492 11.7219 24.8107C11.7747 24.6722 11.8549 24.5458 11.9577 24.439C12.0604 24.3322 12.1836 24.2472 12.32 24.1891C12.4563 24.1309 12.6029 24.1008 12.7511 24.1006H45.3185C45.4667 24.1008 45.6134 24.1309 45.7497 24.1891C45.8861 24.2472 46.0093 24.3322 46.112 24.439C46.2148 24.5458 46.295 24.6722 46.3478 24.8107C46.4007 24.9492 46.4251 25.0969 46.4196 25.245L45.655 45.4307C45.6437 45.7172 45.5215 45.988 45.3141 46.1859C45.1067 46.3838 44.8304 46.4932 44.5437 46.491Z" fill="#FFCC00"/>
<path d="M21.2485 54.8867H16.4518C15.6087 54.8867 14.9252 55.5702 14.9252 56.4134V58.5951C14.9252 59.4382 15.6087 60.1218 16.4518 60.1218H21.2485C22.0917 60.1218 22.7752 59.4382 22.7752 58.5951V56.4134C22.7752 55.5702 22.0917 54.8867 21.2485 54.8867Z" fill="#FFCC00"/>
<path d="M21.2485 63.4272H16.4518C15.6087 63.4272 14.9252 64.1108 14.9252 64.9539V67.1356C14.9252 67.9788 15.6087 68.6623 16.4518 68.6623H21.2485C22.0917 68.6623 22.7752 67.9788 22.7752 67.1356V64.9539C22.7752 64.1108 22.0917 63.4272 21.2485 63.4272Z" fill="#FFCC00"/>
<path d="M21.2485 71.9678H16.4518C15.6087 71.9678 14.9252 72.6513 14.9252 73.4945V75.6762C14.9252 76.5193 15.6087 77.2028 16.4518 77.2028H21.2485C22.0917 77.2028 22.7752 76.5193 22.7752 75.6762V73.4945C22.7752 72.6513 22.0917 71.9678 21.2485 71.9678Z" fill="#FFCC00"/>
<path d="M21.2485 80.5112H16.4518C15.6087 80.5112 14.9252 81.1947 14.9252 82.0379V84.2196C14.9252 85.0628 15.6087 85.7463 16.4518 85.7463H21.2485C22.0917 85.7463 22.7752 85.0628 22.7752 84.2196V82.0379C22.7752 81.1947 22.0917 80.5112 21.2485 80.5112Z" fill="#FFCC00"/>
<path d="M31.214 54.8867H26.4173C25.5741 54.8867 24.8906 55.5702 24.8906 56.4134V58.5951C24.8906 59.4382 25.5741 60.1218 26.4173 60.1218H31.214C32.0571 60.1218 32.7406 59.4382 32.7406 58.5951V56.4134C32.7406 55.5702 32.0571 54.8867 31.214 54.8867Z" fill="#FFCC00"/>
<path d="M31.214 63.4272H26.4173C25.5741 63.4272 24.8906 64.1108 24.8906 64.9539V67.1356C24.8906 67.9788 25.5741 68.6623 26.4173 68.6623H31.214C32.0571 68.6623 32.7406 67.9788 32.7406 67.1356V64.9539C32.7406 64.1108 32.0571 63.4272 31.214 63.4272Z" fill="#FFCC00"/>
<path d="M31.214 71.9678H26.4173C25.5741 71.9678 24.8906 72.6513 24.8906 73.4945V75.6762C24.8906 76.5193 25.5741 77.2028 26.4173 77.2028H31.214C32.0571 77.2028 32.7406 76.5193 32.7406 75.6762V73.4945C32.7406 72.6513 32.0571 71.9678 31.214 71.9678Z" fill="#FFCC00"/>
<path d="M31.214 80.5112H26.4173C25.5741 80.5112 24.8906 81.1947 24.8906 82.0379V84.2196C24.8906 85.0628 25.5741 85.7463 26.4173 85.7463H31.214C32.0571 85.7463 32.7406 85.0628 32.7406 84.2196V82.0379C32.7406 81.1947 32.0571 80.5112 31.214 80.5112Z" fill="#FFCC00"/>
<path d="M41.1794 54.8867H36.3828C35.5396 54.8867 34.8561 55.5702 34.8561 56.4134V58.5951C34.8561 59.4382 35.5396 60.1218 36.3828 60.1218H41.1794C42.0226 60.1218 42.7061 59.4382 42.7061 58.5951V56.4134C42.7061 55.5702 42.0226 54.8867 41.1794 54.8867Z" fill="#FFCC00"/>
<path d="M41.1794 63.4272H36.3828C35.5396 63.4272 34.8561 64.1108 34.8561 64.9539V67.1356C34.8561 67.9788 35.5396 68.6623 36.3828 68.6623H41.1794C42.0226 68.6623 42.7061 67.9788 42.7061 67.1356V64.9539C42.7061 64.1108 42.0226 63.4272 41.1794 63.4272Z" fill="#FFCC00"/>
<path d="M41.1794 71.9678H36.3828C35.5396 71.9678 34.8561 72.6513 34.8561 73.4945V75.6762C34.8561 76.5193 35.5396 77.2028 36.3828 77.2028H41.1794C42.0226 77.2028 42.7061 76.5193 42.7061 75.6762V73.4945C42.7061 72.6513 42.0226 71.9678 41.1794 71.9678Z" fill="#FFCC00"/>
<path d="M41.1794 80.5112H36.3828C35.5396 80.5112 34.8561 81.1947 34.8561 82.0379V84.2196C34.8561 85.0628 35.5396 85.7463 36.3828 85.7463H41.1794C42.0226 85.7463 42.7061 85.0628 42.7061 84.2196V82.0379C42.7061 81.1947 42.0226 80.5112 41.1794 80.5112Z" fill="#FFCC00"/>
<path d="M22.6732 54.8867H17.8766C17.0334 54.8867 16.3499 55.5702 16.3499 56.4134V58.5951C16.3499 59.4382 17.0334 60.1218 17.8766 60.1218H22.6732C23.5164 60.1218 24.1999 59.4382 24.1999 58.5951V56.4134C24.1999 55.5702 23.5164 54.8867 22.6732 54.8867Z" fill="#191E28"/>
<path d="M22.6732 63.4272H17.8766C17.0334 63.4272 16.3499 64.1108 16.3499 64.9539V67.1356C16.3499 67.9788 17.0334 68.6623 17.8766 68.6623H22.6732C23.5164 68.6623 24.1999 67.9788 24.1999 67.1356V64.9539C24.1999 64.1108 23.5164 63.4272 22.6732 63.4272Z" fill="#191E28"/>
<path d="M22.6732 71.9678H17.8766C17.0334 71.9678 16.3499 72.6513 16.3499 73.4945V75.6762C16.3499 76.5193 17.0334 77.2028 17.8766 77.2028H22.6732C23.5164 77.2028 24.1999 76.5193 24.1999 75.6762V73.4945C24.1999 72.6513 23.5164 71.9678 22.6732 71.9678Z" fill="#191E28"/>
<path d="M22.6732 80.5112H17.8766C17.0334 80.5112 16.3499 81.1947 16.3499 82.0379V84.2196C16.3499 85.0628 17.0334 85.7463 17.8766 85.7463H22.6732C23.5164 85.7463 24.1999 85.0628 24.1999 84.2196V82.0379C24.1999 81.1947 23.5164 80.5112 22.6732 80.5112Z" fill="#FFCC00"/>
<path d="M32.6387 54.8867H27.842C26.9989 54.8867 26.3154 55.5702 26.3154 56.4134V58.5951C26.3154 59.4382 26.9989 60.1218 27.842 60.1218H32.6387C33.4819 60.1218 34.1654 59.4382 34.1654 58.5951V56.4134C34.1654 55.5702 33.4819 54.8867 32.6387 54.8867Z" fill="#191E28"/>
<path d="M32.6387 63.4272H27.842C26.9989 63.4272 26.3154 64.1108 26.3154 64.9539V67.1356C26.3154 67.9788 26.9989 68.6623 27.842 68.6623H32.6387C33.4819 68.6623 34.1654 67.9788 34.1654 67.1356V64.9539C34.1654 64.1108 33.4819 63.4272 32.6387 63.4272Z" fill="#191E28"/>
<path d="M32.6387 71.9678H27.842C26.9989 71.9678 26.3154 72.6513 26.3154 73.4945V75.6762C26.3154 76.5193 26.9989 77.2028 27.842 77.2028H32.6387C33.4819 77.2028 34.1654 76.5193 34.1654 75.6762V73.4945C34.1654 72.6513 33.4819 71.9678 32.6387 71.9678Z" fill="#191E28"/>
<path d="M32.6387 80.5112H27.842C26.9989 80.5112 26.3154 81.1947 26.3154 82.0379V84.2196C26.3154 85.0628 26.9989 85.7463 27.842 85.7463H32.6387C33.4819 85.7463 34.1654 85.0628 34.1654 84.2196V82.0379C34.1654 81.1947 33.4819 80.5112 32.6387 80.5112Z" fill="#191E28"/>
<path d="M42.6042 54.8867H37.8075C36.9643 54.8867 36.2808 55.5702 36.2808 56.4134V58.5951C36.2808 59.4382 36.9643 60.1218 37.8075 60.1218H42.6042C43.4473 60.1218 44.1308 59.4382 44.1308 58.5951V56.4134C44.1308 55.5702 43.4473 54.8867 42.6042 54.8867Z" fill="#191E28"/>
<path d="M42.6042 63.4272H37.8075C36.9643 63.4272 36.2808 64.1108 36.2808 64.9539V67.1356C36.2808 67.9788 36.9643 68.6623 37.8075 68.6623H42.6042C43.4473 68.6623 44.1308 67.9788 44.1308 67.1356V64.9539C44.1308 64.1108 43.4473 63.4272 42.6042 63.4272Z" fill="#191E28"/>
<path d="M42.6042 71.9678H37.8075C36.9643 71.9678 36.2808 72.6513 36.2808 73.4945V75.6762C36.2808 76.5193 36.9643 77.2028 37.8075 77.2028H42.6042C43.4473 77.2028 44.1308 76.5193 44.1308 75.6762V73.4945C44.1308 72.6513 43.4473 71.9678 42.6042 71.9678Z" fill="#191E28"/>
<path d="M42.6042 80.5112H37.8075C36.9643 80.5112 36.2808 81.1947 36.2808 82.0379V84.2196C36.2808 85.0628 36.9643 85.7463 37.8075 85.7463H42.6042C43.4473 85.7463 44.1308 85.0628 44.1308 84.2196V82.0379C44.1308 81.1947 43.4473 80.5112 42.6042 80.5112Z" fill="#FFCC00"/>
<path d="M22.6732 60.2616H17.8766C17.434 60.2609 17.0098 60.0848 16.6969 59.7719C16.3839 59.459 16.2078 59.0348 16.2072 58.5922V56.4131C16.2078 55.9705 16.3839 55.5463 16.6969 55.2334C17.0098 54.9204 17.434 54.7443 17.8766 54.7437H22.6732C23.1158 54.7443 23.54 54.9204 23.853 55.2334C24.1659 55.5463 24.342 55.9705 24.3427 56.4131V58.5922C24.342 59.0348 24.1659 59.459 23.853 59.7719C23.54 60.0848 23.1158 60.2609 22.6732 60.2616ZM17.8766 55.0291C17.5095 55.0291 17.1575 55.1749 16.898 55.4345C16.6384 55.694 16.4926 56.046 16.4926 56.4131V58.5922C16.4926 58.9593 16.6384 59.3113 16.898 59.5708C17.1575 59.8303 17.5095 59.9762 17.8766 59.9762H22.6732C23.0403 59.9762 23.3923 59.8303 23.6518 59.5708C23.9114 59.3113 24.0572 58.9593 24.0572 58.5922V56.4131C24.0572 56.046 23.9114 55.694 23.6518 55.4345C23.3923 55.1749 23.0403 55.0291 22.6732 55.0291H17.8766Z" fill="white"/>
<path d="M22.6732 68.8021H17.8766C17.4343 68.8021 17.01 68.6266 16.697 68.3141C16.384 68.0016 16.2078 67.5776 16.2072 67.1353V64.9536C16.2078 64.511 16.3839 64.0868 16.6969 63.7739C17.0098 63.4609 17.434 63.2849 17.8766 63.2842H22.6732C23.1158 63.2849 23.54 63.4609 23.853 63.7739C24.1659 64.0868 24.342 64.511 24.3427 64.9536V67.1353C24.342 67.5776 24.1658 68.0016 23.8528 68.3141C23.5398 68.6266 23.1156 68.8021 22.6732 68.8021ZM17.8766 63.5696C17.5097 63.5703 17.1581 63.7163 16.8987 63.9757C16.6393 64.2351 16.4933 64.5867 16.4926 64.9536V67.1353C16.4933 67.5021 16.6393 67.8537 16.8987 68.1131C17.1581 68.3725 17.5097 68.5185 17.8766 68.5192H22.6732C23.0401 68.5185 23.3917 68.3725 23.6511 68.1131C23.9105 67.8537 24.0565 67.5021 24.0572 67.1353V64.9536C24.0565 64.5867 23.9105 64.2351 23.6511 63.9757C23.3917 63.7163 23.0401 63.5703 22.6732 63.5696H17.8766Z" fill="white"/>
<path d="M22.6732 77.3457H17.8766C17.434 77.345 17.0098 77.1689 16.6969 76.856C16.3839 76.5431 16.2078 76.1188 16.2072 75.6763V73.4946C16.2078 73.0521 16.3839 72.6278 16.6969 72.3149C17.0098 72.002 17.434 71.8259 17.8766 71.8252H22.6732C23.1158 71.8259 23.54 72.002 23.853 72.3149C24.1659 72.6278 24.342 73.0521 24.3427 73.4946V75.6763C24.342 76.1188 24.1659 76.5431 23.853 76.856C23.54 77.1689 23.1158 77.345 22.6732 77.3457ZM17.8766 72.1106C17.5097 72.1113 17.1581 72.2574 16.8987 72.5167C16.6393 72.7761 16.4933 73.1278 16.4926 73.4946V75.6763C16.4933 76.0431 16.6393 76.3948 16.8987 76.6542C17.1581 76.9136 17.5097 77.0596 17.8766 77.0602H22.6732C23.0401 77.0596 23.3917 76.9136 23.6511 76.6542C23.9105 76.3948 24.0565 76.0431 24.0572 75.6763V73.4946C24.0565 73.1278 23.9105 72.7761 23.6511 72.5167C23.3917 72.2574 23.0401 72.1113 22.6732 72.1106H17.8766Z" fill="white"/>
<path d="M22.6732 85.8866H17.8766C17.434 85.8859 17.0098 85.7098 16.6969 85.3969C16.3839 85.084 16.2078 84.6597 16.2072 84.2172V82.0381C16.2072 81.5953 16.3831 81.1707 16.6961 80.8576C17.0092 80.5445 17.4338 80.3687 17.8766 80.3687H22.6732C23.116 80.3687 23.5406 80.5445 23.8537 80.8576C24.1668 81.1707 24.3427 81.5953 24.3427 82.0381V84.2172C24.342 84.6597 24.1659 85.084 23.853 85.3969C23.54 85.7098 23.1158 85.8859 22.6732 85.8866ZM17.8766 80.6516C17.5093 80.6522 17.1573 80.7986 16.8978 81.0585C16.6383 81.3185 16.4926 81.6708 16.4926 82.0381V84.2172C16.4926 84.5842 16.6384 84.9363 16.898 85.1958C17.1575 85.4553 17.5095 85.6012 17.8766 85.6012H22.6732C23.0403 85.6012 23.3923 85.4553 23.6518 85.1958C23.9114 84.9363 24.0572 84.5842 24.0572 84.2172V82.0381C24.0572 81.6708 23.9115 81.3185 23.652 81.0585C23.3925 80.7986 23.0405 80.6522 22.6732 80.6516H17.8766Z" fill="white"/>
<path d="M32.6387 60.2616H27.842C27.3995 60.2609 26.9753 60.0848 26.6623 59.7719C26.3494 59.459 26.1733 59.0348 26.1726 58.5922V56.4131C26.1733 55.9705 26.3494 55.5463 26.6623 55.2334C26.9753 54.9204 27.3995 54.7443 27.842 54.7437H32.6387C33.0812 54.7443 33.5055 54.9204 33.8184 55.2334C34.1313 55.5463 34.3074 55.9705 34.3081 56.4131V58.5922C34.3074 59.0348 34.1313 59.459 33.8184 59.7719C33.5055 60.0848 33.0812 60.2609 32.6387 60.2616ZM27.842 55.0291C27.475 55.0291 27.123 55.1749 26.8634 55.4345C26.6039 55.694 26.4581 56.046 26.4581 56.4131V58.5922C26.4581 58.9593 26.6039 59.3113 26.8634 59.5708C27.123 59.8303 27.475 59.9762 27.842 59.9762H32.6387C32.8204 59.9762 33.0004 59.9404 33.1683 59.8708C33.3362 59.8013 33.4888 59.6993 33.6173 59.5708C33.7458 59.4423 33.8478 59.2897 33.9173 59.1218C33.9869 58.9539 34.0227 58.7739 34.0227 58.5922V56.4131C34.0227 56.2313 33.9869 56.0513 33.9173 55.8834C33.8478 55.7155 33.7458 55.563 33.6173 55.4345C33.4888 55.3059 33.3362 55.204 33.1683 55.1345C33.0004 55.0649 32.8204 55.0291 32.6387 55.0291H27.842Z" fill="white"/>
<path d="M32.6387 68.8021H27.842C27.3997 68.8021 26.9755 68.6266 26.6625 68.3141C26.3495 68.0016 26.1733 67.5776 26.1726 67.1353V64.9536C26.1733 64.511 26.3494 64.0868 26.6623 63.7739C26.9753 63.4609 27.3995 63.2849 27.842 63.2842H32.6387C33.0812 63.2849 33.5055 63.4609 33.8184 63.7739C34.1313 64.0868 34.3074 64.511 34.3081 64.9536V67.1353C34.3074 67.5776 34.1313 68.0016 33.8183 68.3141C33.5053 68.6266 33.081 68.8021 32.6387 68.8021ZM27.842 63.5696C27.4752 63.5703 27.1236 63.7163 26.8642 63.9757C26.6048 64.2351 26.4588 64.5867 26.4581 64.9536V67.1353C26.4588 67.5021 26.6048 67.8537 26.8642 68.1131C27.1236 68.3725 27.4752 68.5185 27.842 68.5192H32.6387C33.0055 68.5185 33.3572 68.3725 33.6166 68.1131C33.8759 67.8537 34.022 67.5021 34.0227 67.1353V64.9536C34.022 64.5867 33.8759 64.2351 33.6166 63.9757C33.3572 63.7163 33.0055 63.5703 32.6387 63.5696H27.842Z" fill="white"/>
<path d="M32.6387 77.3457H27.842C27.3995 77.345 26.9753 77.1689 26.6623 76.856C26.3494 76.5431 26.1733 76.1188 26.1726 75.6763V73.4946C26.1733 73.0521 26.3494 72.6278 26.6623 72.3149C26.9753 72.002 27.3995 71.8259 27.842 71.8252H32.6387C33.0812 71.8259 33.5055 72.002 33.8184 72.3149C34.1313 72.6278 34.3074 73.0521 34.3081 73.4946V75.6763C34.3074 76.1188 34.1313 76.5431 33.8184 76.856C33.5055 77.1689 33.0812 77.345 32.6387 77.3457ZM27.842 72.1106C27.4752 72.1113 27.1236 72.2574 26.8642 72.5167C26.6048 72.7761 26.4588 73.1278 26.4581 73.4946V75.6763C26.4588 76.0431 26.6048 76.3948 26.8642 76.6542C27.1236 76.9136 27.4752 77.0596 27.842 77.0602H32.6387C33.0055 77.0596 33.3572 76.9136 33.6166 76.6542C33.8759 76.3948 34.022 76.0431 34.0227 75.6763V73.4946C34.022 73.1278 33.8759 72.7761 33.6166 72.5167C33.3572 72.2574 33.0055 72.1113 32.6387 72.1106H27.842Z" fill="white"/>
<path d="M32.6387 85.8866H27.842C27.3995 85.8859 26.9753 85.7098 26.6623 85.3969C26.3494 85.084 26.1733 84.6597 26.1726 84.2172V82.0381C26.1726 81.5953 26.3485 81.1707 26.6616 80.8576C26.9747 80.5445 27.3993 80.3687 27.842 80.3687H32.6387C33.0815 80.3687 33.5061 80.5445 33.8192 80.8576C34.1322 81.1707 34.3081 81.5953 34.3081 82.0381V84.2172C34.3074 84.6597 34.1313 85.084 33.8184 85.3969C33.5055 85.7098 33.0812 85.8859 32.6387 85.8866ZM27.842 80.6516C27.4748 80.6522 27.1227 80.7986 26.8633 81.0585C26.6038 81.3185 26.4581 81.6708 26.4581 82.0381V84.2172C26.4581 84.5842 26.6039 84.9363 26.8634 85.1958C27.123 85.4553 27.475 85.6012 27.842 85.6012H32.6387C32.8204 85.6012 33.0004 85.5654 33.1683 85.4958C33.3362 85.4263 33.4888 85.3243 33.6173 85.1958C33.7458 85.0673 33.8478 84.9147 33.9173 84.7468C33.9869 84.5789 34.0227 84.3989 34.0227 84.2172V82.0381C34.0227 81.6708 33.8769 81.3185 33.6175 81.0585C33.358 80.7986 33.006 80.6522 32.6387 80.6516H27.842Z" fill="white"/>
<path d="M42.6042 60.2616H37.8049C37.3626 60.2609 36.9387 60.0848 36.6261 59.7718C36.3136 59.4588 36.1381 59.0345 36.1381 58.5922V56.4131C36.1381 55.9707 36.3136 55.5465 36.6261 55.2335C36.9387 54.9205 37.3626 54.7443 37.8049 54.7437H42.6042C43.0467 54.7443 43.4709 54.9204 43.7839 55.2334C44.0968 55.5463 44.2729 55.9705 44.2736 56.4131V58.5922C44.2729 59.0348 44.0968 59.459 43.7839 59.7719C43.4709 60.0848 43.0467 60.2609 42.6042 60.2616ZM37.8049 55.0291C37.4381 55.0298 37.0865 55.1758 36.8271 55.4352C36.5677 55.6946 36.4217 56.0462 36.421 56.4131V58.5922C36.4217 58.959 36.5677 59.3107 36.8271 59.5701C37.0865 59.8295 37.4381 59.9755 37.8049 59.9762H42.6042C42.971 59.9755 43.3226 59.8295 43.582 59.5701C43.8414 59.3107 43.9874 58.959 43.9881 58.5922V56.4131C43.9874 56.0462 43.8414 55.6946 43.582 55.4352C43.3226 55.1758 42.971 55.0298 42.6042 55.0291H37.8049Z" fill="white"/>
<path d="M42.6042 68.8021H37.8049C37.3629 68.8021 36.9389 68.6265 36.6263 68.3139C36.3137 68.0013 36.1381 67.5774 36.1381 67.1353V64.9536C36.1381 64.5113 36.3136 64.087 36.6261 63.774C36.9387 63.461 37.3626 63.2849 37.8049 63.2842H42.6042C43.0467 63.2849 43.4709 63.4609 43.7839 63.7739C44.0968 64.0868 44.2729 64.511 44.2736 64.9536V67.1353C44.2729 67.5776 44.0967 68.0016 43.7837 68.3141C43.4707 68.6266 43.0465 68.8021 42.6042 68.8021ZM37.8049 63.5696C37.4381 63.5703 37.0865 63.7163 36.8271 63.9757C36.5677 64.2351 36.4217 64.5867 36.421 64.9536V67.1353C36.4217 67.5021 36.5677 67.8537 36.8271 68.1131C37.0865 68.3725 37.4381 68.5185 37.8049 68.5192H42.6042C42.971 68.5185 43.3226 68.3725 43.582 68.1131C43.8414 67.8537 43.9874 67.5021 43.9881 67.1353V64.9536C43.9874 64.5867 43.8414 64.2351 43.582 63.9757C43.3226 63.7163 42.971 63.5703 42.6042 63.5696H37.8049Z" fill="white"/>
<path d="M42.6042 77.3457H37.8049C37.3626 77.345 36.9387 77.1688 36.6261 76.8558C36.3136 76.5428 36.1381 76.1186 36.1381 75.6763V73.4946C36.1381 73.0523 36.3136 72.6281 36.6261 72.3151C36.9387 72.0021 37.3626 71.8259 37.8049 71.8252H42.6042C43.0467 71.8259 43.4709 72.002 43.7839 72.3149C44.0968 72.6278 44.2729 73.0521 44.2736 73.4946V75.6763C44.2729 76.1188 44.0968 76.5431 43.7839 76.856C43.4709 77.1689 43.0467 77.345 42.6042 77.3457ZM37.8049 72.1106C37.4381 72.1113 37.0865 72.2574 36.8271 72.5167C36.5677 72.7761 36.4217 73.1278 36.421 73.4946V75.6763C36.4217 76.0431 36.5677 76.3948 36.8271 76.6542C37.0865 76.9136 37.4381 77.0596 37.8049 77.0602H42.6042C42.971 77.0596 43.3226 76.9136 43.582 76.6542C43.8414 76.3948 43.9874 76.0431 43.9881 75.6763V73.4946C43.9874 73.1278 43.8414 72.7761 43.582 72.5167C43.3226 72.2574 42.971 72.1113 42.6042 72.1106H37.8049Z" fill="white"/>
<path d="M42.6042 85.8866H37.8049C37.3626 85.8859 36.9387 85.7097 36.6261 85.3967C36.3136 85.0837 36.1381 84.6595 36.1381 84.2172V82.0381C36.1377 81.8189 36.1806 81.6019 36.2642 81.3994C36.3479 81.1969 36.4706 81.0128 36.6254 80.8578C36.7802 80.7027 36.9641 80.5797 37.1665 80.4958C37.3689 80.4119 37.5858 80.3687 37.8049 80.3687H42.6042C43.0469 80.3687 43.4715 80.5445 43.7846 80.8576C44.0977 81.1707 44.2736 81.5953 44.2736 82.0381V84.2172C44.2729 84.6597 44.0968 85.084 43.7839 85.3969C43.4709 85.7098 43.0467 85.8859 42.6042 85.8866ZM37.8049 80.6516C37.4377 80.6522 37.0857 80.7986 36.8262 81.0585C36.5667 81.3185 36.421 81.6708 36.421 82.0381V84.2172C36.4217 84.584 36.5677 84.9357 36.8271 85.1951C37.0865 85.4544 37.4381 85.6005 37.8049 85.6012H42.6042C42.971 85.6005 43.3226 85.4544 43.582 85.1951C43.8414 84.9357 43.9874 84.584 43.9881 84.2172V82.0381C43.9881 81.6708 43.8424 81.3185 43.5829 81.0585C43.3234 80.7986 42.9714 80.6522 42.6042 80.6516H37.8049Z" fill="white"/>
<path d="M41.7886 94.4705H13.164C10.6994 94.4705 7.7531 92.5412 7.65115 90.0562L5.47709 17.5377C5.44954 16.9213 5.54839 16.3058 5.76754 15.7289C5.98669 15.1521 6.32152 14.6263 6.75145 14.1836C7.18851 13.7261 7.71436 13.3627 8.29679 13.1155C8.87922 12.8683 9.50599 12.7427 10.1387 12.7462H47.9258C48.5585 12.7427 49.1853 12.8683 49.7677 13.1155C50.3502 13.3627 50.876 13.7261 51.3131 14.1836C51.743 14.6263 52.0779 15.1521 52.297 15.7289C52.5162 16.3058 52.615 16.9213 52.5874 17.5377L52.4702 21.4959L52.0879 21.4831L52.2077 17.525C52.2323 16.9598 52.1414 16.3956 51.9407 15.8667C51.74 15.3378 51.4337 14.8553 51.0404 14.4487C50.6387 14.0286 50.1555 13.6949 49.6205 13.4679C49.0854 13.2409 48.5096 13.1254 47.9284 13.1285H10.1361C9.55582 13.1264 8.98112 13.2423 8.44701 13.4693C7.91291 13.6962 7.43055 14.0295 7.02926 14.4487C6.636 14.8547 6.32982 15.3368 6.12953 15.8653C5.92924 16.3939 5.83905 16.9578 5.8645 17.5224L8.03601 90.0409C8.13286 92.3194 10.8753 94.0882 13.1691 94.0882H41.7937L41.7886 94.4705Z" fill="#FFCC00"/>
<path d="M51.721 32.6105L50.4622 74.7754L50.8443 74.7868L52.1031 32.6219L51.721 32.6105Z" fill="#FFCC00"/>
<path d="M43.1445 4.00148V19.6939H14.6983V4.00148C14.6294 2.9512 14.1595 1.96757 13.3857 1.25397C12.6099 0.531045 11.5891 0.128574 10.5286 0.127441H38.9722C40.0337 0.127422 41.0557 0.530008 41.8319 1.25397C42.6067 1.96678 43.0768 2.95086 43.1445 4.00148Z" fill="white"/>
<path d="M14.6983 4.0013H6.35385C6.42245 2.95038 6.89348 1.96633 7.66899 1.25379C8.44481 0.529973 9.46633 0.127441 10.5274 0.127441C11.5884 0.127441 12.6099 0.529973 13.3857 1.25379C14.1595 1.96739 14.6294 2.95102 14.6983 4.0013Z" fill="#FFCC00"/>
<path d="M43.2719 19.8213H14.5709V4.00148C14.5021 2.98565 14.0459 2.035 13.2966 1.34572C12.5447 0.644167 11.5544 0.254276 10.5261 0.254871V0H38.9722C40.0646 0.00165459 41.116 0.415851 41.916 1.15966C42.7151 1.89496 43.1999 2.91012 43.2694 3.99383V19.8213H43.2719ZM14.8258 19.5664H43.017V4.00402C42.9486 2.98736 42.4924 2.03579 41.7427 1.34572C40.9905 0.644605 40.0005 0.254785 38.9722 0.254871H11.9916C12.541 0.453842 13.0447 0.761575 13.4724 1.15966C14.2707 1.89559 14.7553 2.91039 14.8258 3.99383V19.5664Z" fill="#FFCC00"/>
<path d="M44.9005 19.824H12.9168C12.7188 19.8243 12.5252 19.7658 12.3605 19.6559C12.1958 19.546 12.0675 19.3896 11.9919 19.2066C11.9162 19.0236 11.8966 18.8223 11.9356 18.6282C11.9746 18.4341 12.0704 18.2559 12.2108 18.1164C12.303 18.023 12.413 17.949 12.5342 17.8986C12.6555 17.8483 12.7855 17.8227 12.9168 17.8233H14.6754V18.0781H12.9295C12.8324 18.0775 12.7361 18.0963 12.6463 18.1335C12.5566 18.1707 12.4752 18.2255 12.407 18.2948C12.3018 18.3984 12.2299 18.531 12.2003 18.6757C12.1706 18.8204 12.1847 18.9706 12.2408 19.1072C12.2968 19.2439 12.3922 19.3607 12.5148 19.443C12.6375 19.5252 12.7818 19.5691 12.9295 19.5691H44.9133C45.1102 19.5678 45.2988 19.4889 45.438 19.3497C45.5773 19.2104 45.6562 19.0219 45.6575 18.8249C45.6575 18.6273 45.5792 18.4377 45.4397 18.2977C45.3002 18.1578 45.1109 18.0788 44.9133 18.0781H43.17V17.8233H44.9133C45.0447 17.8233 45.1748 17.8492 45.2962 17.8995C45.4176 17.9499 45.5278 18.0237 45.6206 18.1168C45.7134 18.2098 45.787 18.3203 45.8371 18.4418C45.8871 18.5633 45.9127 18.6935 45.9124 18.8249C45.9117 19.0897 45.8062 19.3434 45.619 19.5306C45.4318 19.7178 45.178 19.8233 44.9133 19.824H44.9005Z" fill="#FFCC00"/>
<path d="M46.1137 95.3829C46.1137 96.0864 51.2902 96.6573 57.6772 96.6573C64.0643 96.6573 69.2407 96.0813 69.2407 95.3829C69.2421 95.3702 69.2421 95.3574 69.2407 95.3447V91.8887H46.1265V95.3371C46.1195 95.3515 46.1152 95.367 46.1137 95.3829Z" fill="#F49B51"/>
<path d="M57.6772 93.199C64.0636 93.199 69.2407 92.6262 69.2407 91.9196C69.2407 91.213 64.0636 90.6401 57.6772 90.6401C51.2909 90.6401 46.1137 91.213 46.1137 91.9196C46.1137 92.6262 51.2909 93.199 57.6772 93.199Z" fill="#FCC659"/>
<path d="M43.3815 91.2135C43.3815 91.9169 48.5579 92.4878 54.945 92.4878C61.3321 92.4878 66.5085 91.9144 66.5085 91.2135C66.5099 91.2008 66.5099 91.1879 66.5085 91.1752V87.709H43.3943V91.1574C43.3867 91.1752 43.3824 91.1942 43.3815 91.2135Z" fill="#F49B51"/>
<path d="M54.945 89.0291C61.3314 89.0291 66.5085 88.4563 66.5085 87.7497C66.5085 87.043 61.3314 86.4702 54.945 86.4702C48.5587 86.4702 43.3815 87.043 43.3815 87.7497C43.3815 88.4563 48.5587 89.0291 54.945 89.0291Z" fill="#FCC659"/>
<path d="M46.1137 87.0412C46.1137 87.7471 51.2902 88.3155 57.6772 88.3155C64.0643 88.3155 69.2407 87.742 69.2407 87.0412C69.2418 87.0284 69.2418 87.0156 69.2407 87.0029V83.5469H46.1265V86.9953C46.1197 87.0098 46.1154 87.0253 46.1137 87.0412Z" fill="#F49B51"/>
<path d="M57.6772 84.8568C64.0636 84.8568 69.2407 84.2839 69.2407 83.5773C69.2407 82.8707 64.0636 82.2979 57.6772 82.2979C51.2909 82.2979 46.1137 82.8707 46.1137 83.5773C46.1137 84.2839 51.2909 84.8568 57.6772 84.8568Z" fill="#FCC659"/>
<path d="M57.6747 96.7975C62.3796 96.7975 69.3758 96.4202 69.3758 95.3804H69.1031C69.1031 95.7805 65.1781 96.5248 57.6747 96.5248H56.8642V96.8L57.6747 96.7975Z" fill="#FFCC00"/>
<path d="M53.0921 96.693V96.4203C51.9197 96.3642 50.8467 96.2878 49.9011 96.1909L49.8731 96.4636C50.8365 96.5579 51.9146 96.6293 53.0921 96.693Z" fill="#FFCC00"/>
<path d="M62.2394 92.3193C66.5849 91.9243 66.585 91.3763 66.585 91.1953H66.3122C66.3122 91.3278 65.5757 91.7407 62.2165 92.0466L62.2394 92.3193Z" fill="#FFCC00"/>
<path d="M54.8864 92.6096C56.1862 92.6096 57.4606 92.5867 58.6789 92.5408V92.2681C56.5048 92.3496 54.0912 92.3598 51.8585 92.2935V92.5663C52.8321 92.5943 53.8567 92.6096 54.8864 92.6096Z" fill="#FFCC00"/>
<path d="M48.9683 92.4318L48.9861 92.1591C47.7551 92.0775 46.6923 91.973 45.79 91.8481L45.7518 92.1183C46.6464 92.2432 47.7296 92.3503 48.9683 92.4318Z" fill="#FFCC00"/>
<path d="M65.4533 84.6684C69.307 84.2759 69.307 83.7789 69.307 83.5903H69.0343C69.0343 83.5903 68.9349 84.0389 65.4253 84.3957L65.4533 84.6684Z" fill="#FFCC00"/>
<path d="M57.6058 85.0075C58.9363 85.0075 60.2361 84.982 61.4697 84.9336V84.6608C60.2387 84.7093 58.9414 84.7348 57.616 84.7348C55.2432 84.7348 52.9646 84.6557 51.0251 84.5054L51.0047 84.7781C52.9392 84.9285 55.2253 85.0075 57.6058 85.0075Z" fill="#FFCC00"/>
<path d="M42.0154 82.8661C42.0154 83.5721 47.1918 84.1405 53.5789 84.1405C59.966 84.1405 65.1424 83.567 65.1424 82.8661C65.1436 82.8534 65.1436 82.8406 65.1424 82.8279V79.377H42.0231V82.8254C42.0186 82.8385 42.016 82.8522 42.0154 82.8661Z" fill="#F49B51"/>
<path d="M53.5789 80.6873C59.9653 80.6873 65.1424 80.1145 65.1424 79.4079C65.1424 78.7012 59.9653 78.1284 53.5789 78.1284C47.1926 78.1284 42.0154 78.7012 42.0154 79.4079C42.0154 80.1145 47.1926 80.6873 53.5789 80.6873Z" fill="#FCC659"/>
<path d="M44.1614 79.4077C44.1614 79.8844 48.377 80.2692 53.5916 80.2692C58.8063 80.2692 63.0091 79.8844 63.0091 79.4077C63.0091 78.9311 58.7936 78.5488 53.5916 78.5488C48.3897 78.5488 44.1614 78.9337 44.1614 79.4077Z" fill="#F49B51"/>
<path d="M40.1039 7.02686H33.9232V7.79147H40.1039V7.02686Z" fill="white"/>
<path d="M31.0611 7.02686H18.631V7.79147H31.0611V7.02686Z" fill="white"/>
<path d="M40.1064 10.3398H25.7903V11.1045H40.1064V10.3398Z" fill="white"/>
<path d="M24.0317 10.3398H18.631V11.1045H24.0317V10.3398Z" fill="white"/>
<path d="M37.4379 13.9082H31.581V14.6728H37.4379V13.9082Z" fill="white"/>
<path d="M29.1087 13.9082H18.631V14.6728H29.1087V13.9082Z" fill="white"/>
<path d="M28.6729 46.2998H20.9223V46.6821H28.6729V46.2998Z" fill="#FFCC00"/>
<path d="M44.5437 46.6743H31.6804V46.292H44.5437C44.7796 46.2928 45.0065 46.2017 45.1764 46.038C45.3462 45.8743 45.4457 45.651 45.4536 45.4152L46.1265 27.7476L46.5088 27.7603L45.8359 45.428C45.824 45.7627 45.6827 46.0797 45.4416 46.3122C45.2005 46.5447 44.8786 46.6745 44.5437 46.6743Z" fill="#FFCC00"/>
<path d="M28.6958 42.4601C32.7113 42.3003 35.837 38.9154 35.6771 34.8998C35.5172 30.8843 32.1324 27.7586 28.1168 27.9185C24.1013 28.0784 20.9756 31.4633 21.1355 35.4788C21.2954 39.4944 24.6802 42.62 28.6958 42.4601Z" fill="white"/>
<path d="M28.1377 38.8854L24.8014 35.4523L25.1659 35.0955L27.995 38.0061L31.6371 30.4619L32.0958 30.6837L28.1377 38.8854Z" fill="#191E28"/>
</svg>
