<svg width="77" height="83" viewBox="0 0 77 83" fill="none" xmlns="http://www.w3.org/2000/svg">
<path d="M67.8045 63.2662C68.1341 61.8644 67.2649 60.4609 65.8631 60.1313C64.4614 59.8018 63.0579 60.671 62.7283 62.0727C62.3988 63.4745 63.268 64.878 64.6697 65.2075C66.0715 65.5371 67.475 64.6679 67.8045 63.2662Z" stroke="#191E28" stroke-width="1.26" stroke-linecap="round" stroke-linejoin="round"/>
<path d="M64.219 36.9543C64.071 36.9538 63.9233 36.9408 63.7775 36.9154C63.4487 36.8581 63.1345 36.7365 62.8527 36.5576C62.571 36.3788 62.3272 36.1462 62.1354 35.8731C61.9436 35.6001 61.8074 35.2919 61.7347 34.9662C61.662 34.6405 61.6541 34.3037 61.7116 33.9749C62.4224 29.9071 61.9893 26.0364 60.4843 23.082C60.1789 22.4814 60.1243 21.7841 60.3326 21.1432C60.5408 20.5024 60.9948 19.9703 61.595 19.664C62.1956 19.3585 62.8929 19.304 63.5338 19.5122C64.1747 19.7204 64.7067 20.1745 65.0131 20.7746C67.0067 24.7036 67.6121 29.6989 66.7152 34.844C66.6139 35.4333 66.3081 35.9679 65.8515 36.3539C65.3949 36.7399 64.8168 36.9525 64.219 36.9543Z" fill="#FFCC00"/>
<path d="M18.0206 34.0029C17.6236 27.6166 19.6866 21.0497 23.1269 15.7046C27.2753 9.25163 34.7557 4.55349 42.6442 4.67567C56.9413 4.89503 66.8013 23.0906 63.7469 35.9827" stroke="#FFCC00" stroke-width="8.2" stroke-linecap="round" stroke-linejoin="round"/>
<path d="M61.8283 73.8593C70.2074 73.8593 77 65.0838 77 54.2588C77 43.4337 70.2074 34.6582 61.8283 34.6582C53.4491 34.6582 46.6565 43.4337 46.6565 54.2588C46.6565 65.0838 53.4491 73.8593 61.8283 73.8593Z" fill="#FFCC00"/>
<path d="M61.7172 68.4393C61.7172 68.692 61.3645 68.7169 61.6922 68.8447C67.6732 67.9756 71.2828 63.4302 72.3269 56.9994C72.9294 53.2842 71.5438 46.1287 74.4982 43.502" stroke="#191E28" stroke-width="1.22" stroke-linecap="round" stroke-linejoin="round"/>
<path d="M22.2995 73.8567C29.5806 73.8567 35.4831 64.6896 35.4831 53.3815C35.4831 42.0733 29.5806 32.9062 22.2995 32.9062C15.0184 32.9062 9.11583 42.0733 9.11583 53.3815C9.11583 64.6896 15.0184 73.8567 22.2995 73.8567Z" fill="#191E28"/>
<path d="M56.9385 74.4118C64.2197 74.4118 70.1222 65.2448 70.1222 53.9366C70.1222 42.6285 64.2197 33.4614 56.9385 33.4614C49.6574 33.4614 43.7549 42.6285 43.7549 53.9366C43.7549 65.2448 49.6574 74.4118 56.9385 74.4118Z" fill="#191E28"/>
<path d="M15.8937 70.7911C22.9709 70.7911 28.7081 62.401 28.7081 52.0513C28.7081 41.7016 22.9709 33.3115 15.8937 33.3115C8.81652 33.3115 3.07933 41.7016 3.07933 52.0513C3.07933 62.401 8.81652 70.7911 15.8937 70.7911Z" fill="#FFCC00"/>
<path d="M7.73026 38.357C15.4605 38.3154 15.5383 50.8271 15.2856 55.9723C14.8719 64.3495 16.4324 68.4257 25.5426 68.4395" stroke="#191E28" stroke-width="1.26" stroke-linecap="round" stroke-linejoin="round"/>
<path d="M3.77072 53.7949C3.77072 61.814 5.86989 70.2051 13.0615 75.478C20.9195 81.2396 32.862 81.6089 41.3836 76.7247" stroke="#FFCC00" stroke-width="5.4" stroke-linecap="round" stroke-linejoin="round"/>
<path d="M3.86513 59.4317C5.99979 59.4317 7.73027 56.7701 7.73027 53.4869C7.73027 50.2036 5.99979 47.542 3.86513 47.542C1.73048 47.542 0 50.2036 0 53.4869C0 56.7701 1.73048 59.4317 3.86513 59.4317Z" fill="#191E28"/>
<path d="M45.4681 81.4286H36.7771C35.9156 81.4249 35.0906 81.0807 34.482 80.4711C33.8734 79.8614 33.5306 79.0358 33.5284 78.1743C33.5313 77.3124 33.8752 76.4867 34.4849 75.8774C35.0947 75.2682 35.9207 74.925 36.7826 74.9229H45.4681C46.33 74.925 47.156 75.2682 47.7658 75.8774C48.3755 76.4867 48.7194 77.3124 48.7223 78.1743C48.7201 79.0367 48.3766 79.8632 47.7668 80.473C47.1569 81.0828 46.3305 81.4264 45.4681 81.4286Z" fill="#191E28"/>
<path d="M38.6041 74.9229C40.3146 75.5115 40.7366 80.0958 39.4954 81.4286" stroke="white" stroke-width="1.36" stroke-linecap="round" stroke-linejoin="round"/>
<path d="M41.503 74.9229C43.2106 75.5115 43.6327 80.0958 42.3915 81.4286" stroke="white" stroke-width="1.36" stroke-linecap="round" stroke-linejoin="round"/>
<path d="M57.9131 63.8885C59.2654 61.4228 60.2677 58.7988 60.4121 56.0111C60.6898 51.4212 60.1345 46.3399 56.6914 43.2245C55.2586 42.0749 53.6842 40.9282 53.451 38.9512" stroke="white" stroke-width="0.63" stroke-linecap="round" stroke-linejoin="round"/>
<path d="M56.4165 44.6904C52.693 46.2204 52.854 51.9903 52.854 55.3779" stroke="white" stroke-width="0.63" stroke-linecap="round" stroke-linejoin="round"/>
<path d="M53.0512 59.5347C53.0262 60.6898 53.6259 61.8893 54.4395 62.7001" stroke="white" stroke-width="0.63" stroke-linecap="round" stroke-linejoin="round"/>
<path d="M17.3487 39.5677C16.7678 39.5667 16.2076 39.3524 15.7745 38.9653C15.3414 38.5783 15.0656 38.0456 14.9996 37.4686C13.664 25.6594 18.1817 18.7593 18.3733 18.4706C18.5461 18.2124 18.7681 17.9908 19.0266 17.8184C19.285 17.646 19.5749 17.5263 19.8797 17.4659C20.1845 17.4056 20.4981 17.4059 20.8028 17.4668C21.1075 17.5277 21.3971 17.648 21.6553 17.8208C22.1751 18.1684 22.5359 18.7078 22.6587 19.3209C22.7815 19.934 22.6564 20.5708 22.3106 21.0917C22.2356 21.2111 18.5787 27.0116 19.7005 36.9382C19.7708 37.5612 19.5909 38.1865 19.2005 38.6769C18.81 39.1674 18.2408 39.4828 17.618 39.5539C17.5286 39.5639 17.4386 39.5686 17.3487 39.5677Z" fill="#FFCC00"/>
<path d="M18.0206 34.0028C18.0206 34.0028 17.2321 25.0008 21.6553 19.1587" stroke="#191E28" stroke-width="1.26" stroke-linecap="round" stroke-linejoin="round"/>
<path d="M62.6613 20.897C62.6613 20.897 66.9346 26.3309 64.2967 34.9164" stroke="#191E28" stroke-width="1.26" stroke-linecap="round" stroke-linejoin="round"/>
</svg>
