<svg width="78" height="57" viewBox="0 0 78 57" fill="none" xmlns="http://www.w3.org/2000/svg">
<g clip-path="url(#clip0_227_329)">
<path d="M9.82824 2.88965L0.402028 50.5601C0.356685 50.7877 0.363401 51.0223 0.421693 51.2471C0.479984 51.4719 0.588407 51.6813 0.739185 51.8602C0.889964 52.0392 1.07936 52.1833 1.29379 52.2822C1.50822 52.3811 1.74237 52.4324 1.97945 52.4323H6.9504L9.82824 2.88965Z" fill="#FFCC00"/>
<path d="M9.94148 2.69676L3.6935 49.5033C3.64473 49.869 3.67626 50.2407 3.786 50.5936C3.89574 50.9464 4.08117 51.2723 4.32989 51.5494C4.57861 51.8266 4.88491 52.0487 5.22834 52.2009C5.57178 52.353 5.94444 52.4318 6.32146 52.4319H15.4872L10.3195 2.5293L9.94148 2.69676Z" fill="#191E28"/>
<path d="M9.94148 2.69678L7.14446 49.2033C7.11954 49.6179 7.18149 50.0331 7.32652 50.4234C7.47155 50.8137 7.6966 51.171 7.98785 51.4732C8.27909 51.7753 8.6304 52.0161 9.02019 52.1807C9.40999 52.3453 9.83006 52.4303 10.2546 52.4303H23.9245L9.94148 2.69678Z" fill="#191E28"/>
<path d="M9.83674 3.07617L11.1967 49.203C11.1718 49.6176 11.2337 50.0328 11.3788 50.4232C11.5238 50.8135 11.7488 51.1707 12.0401 51.4729C12.3313 51.7751 12.6826 52.0159 13.0724 52.1805C13.4622 52.3451 13.8823 52.43 14.3069 52.4301H27.9762L9.83674 3.07617Z" fill="#191E28"/>
<path d="M75.2843 52.4301H21.3885C20.7363 52.4301 20.1047 52.2063 19.6038 51.7977C19.1029 51.389 18.7644 50.8215 18.6473 50.1938L10.4455 6.31941C10.3582 5.8518 10.3769 5.37112 10.5005 4.91139C10.6241 4.45166 10.8494 4.02412 11.1606 3.65901C11.4718 3.29389 11.8611 3.00013 12.3012 2.7985C12.7413 2.59687 13.2212 2.4923 13.7072 2.49219H66.9687C67.621 2.49225 68.2526 2.71607 68.7535 3.12469C69.2545 3.53331 69.5931 4.10084 69.7104 4.7285L78.026 49.2135C78.0994 49.6065 78.0836 50.0105 77.9797 50.3969C77.8758 50.7833 77.6864 51.1427 77.4248 51.4496C77.1633 51.7564 76.8359 52.0033 76.466 52.1728C76.0962 52.3422 75.6927 52.4301 75.2843 52.4301Z" fill="white"/>
<path d="M11.5098 12.0178H71.1081L69.5802 3.73409C69.5162 3.3857 69.3289 3.07043 69.0512 2.84348C68.7735 2.61652 68.4231 2.49234 68.0612 2.49268H10.3338C10.2597 2.49262 10.1865 2.50852 10.1194 2.53924C10.0523 2.56997 9.9929 2.61476 9.94546 2.67045C9.89802 2.72614 9.86369 2.79135 9.8449 2.86148C9.82611 2.9316 9.82332 3.0049 9.83674 3.0762L11.5098 12.0178Z" fill="#FFCC00"/>
<path d="M12.9033 0C12.2183 0.000550707 11.5615 0.266946 11.0771 0.740723C10.5926 1.2145 10.3202 1.85694 10.3195 2.52703H10.8155C10.8162 1.98563 11.0364 1.46661 11.4278 1.08383C11.8192 0.701051 12.3499 0.485776 12.9033 0.485226C13.4568 0.485776 13.9875 0.701035 14.379 1.0838C14.7705 1.46656 14.9908 1.98559 14.9916 2.52703C14.9922 2.7469 14.9563 2.96539 14.8853 3.174C14.7835 3.47068 14.6135 3.74059 14.3885 3.963C14.1634 4.18541 13.8892 4.35441 13.587 4.45702C13.4054 4.51926 13.2156 4.55603 13.0235 4.56624V5.05198C13.2477 5.04235 13.4698 5.00388 13.6838 4.93757C14.0986 4.80835 14.4734 4.57907 14.7738 4.27086C15.0742 3.96266 15.2904 3.58545 15.4026 3.174C15.4596 2.96286 15.4883 2.7454 15.4882 2.52703C15.4875 1.85676 15.2149 1.21417 14.7302 0.740361C14.2456 0.266555 13.5885 0.000275251 12.9033 0Z" fill="#191E28"/>
<path d="M13.7024 4.79126C13.7024 4.8406 13.6958 4.88974 13.6827 4.9374C13.6499 5.0527 13.5793 5.15431 13.4819 5.22672C13.3845 5.29912 13.2655 5.33834 13.1431 5.33837C12.9948 5.33837 12.8525 5.28073 12.7476 5.17813C12.6427 5.07552 12.5838 4.93636 12.5838 4.79126C12.5838 4.64615 12.6427 4.50699 12.7476 4.40438C12.8525 4.30178 12.9948 4.24414 13.1431 4.24414C13.2286 4.24419 13.313 4.26338 13.3898 4.30025C13.4665 4.33712 13.5336 4.39069 13.586 4.45685C13.6618 4.55252 13.7027 4.67022 13.7024 4.79126Z" fill="#191E28"/>
<path d="M22.1679 0C21.4828 0.000550478 20.826 0.26693 20.3415 0.740691C19.857 1.21445 19.5844 1.8569 19.5835 2.52703H20.0796C20.0803 1.98554 20.3005 1.46645 20.6921 1.08365C21.0836 0.700859 21.6144 0.485639 22.1679 0.485226C22.7213 0.485777 23.2519 0.701068 23.6432 1.08386C24.0345 1.46666 24.2546 1.98568 24.2552 2.52703C24.256 2.74692 24.2201 2.96545 24.1488 3.174C24.0471 3.47053 23.8772 3.74033 23.6524 3.96273C23.4275 4.18512 23.1536 4.35421 22.8516 4.45702C22.6696 4.51921 22.4795 4.55597 22.287 4.56624V5.05198C22.5113 5.04239 22.7333 5.00393 22.9473 4.93757C23.3623 4.8085 23.7374 4.57929 24.0379 4.27107C24.3385 3.96286 24.5549 3.58557 24.6672 3.174C24.7242 2.96286 24.7529 2.7454 24.7528 2.52703C24.7521 1.85676 24.4795 1.21417 23.9948 0.740361C23.5102 0.266555 22.8531 0.000275251 22.1679 0Z" fill="#191E28"/>
<path d="M22.9664 4.79126C22.9663 4.84063 22.9595 4.88976 22.9462 4.9374C22.9136 5.05283 22.8432 5.1546 22.7457 5.22704C22.6482 5.29949 22.529 5.3386 22.4066 5.33837C22.2583 5.33837 22.116 5.28073 22.0111 5.17813C21.9062 5.07552 21.8473 4.93636 21.8473 4.79126C21.8473 4.64615 21.9062 4.50699 22.0111 4.40438C22.116 4.30178 22.2583 4.24414 22.4066 4.24414C22.4923 4.24407 22.5769 4.2632 22.6538 4.30007C22.7308 4.33694 22.7981 4.39058 22.8505 4.45685C22.926 4.55269 22.9667 4.67031 22.9664 4.79126Z" fill="#191E28"/>
<path d="M31.432 0C30.747 0.000550707 30.0902 0.266946 29.6058 0.740723C29.1213 1.2145 28.8489 1.85694 28.8482 2.52703H29.3442C29.3448 1.98559 29.5649 1.46649 29.9563 1.08368C30.3478 0.700876 30.8785 0.485639 31.432 0.485226C31.9855 0.485639 32.5162 0.700876 32.9076 1.08368C33.2991 1.46649 33.5192 1.98559 33.5198 2.52703C33.5204 2.7469 33.4844 2.96539 33.4135 3.174C33.3117 3.4706 33.1418 3.74046 32.9168 3.96286C32.6919 4.18526 32.4178 4.35431 32.1157 4.45702C31.9339 4.51925 31.744 4.55602 31.5516 4.56624V5.05198C31.7759 5.0423 31.9979 5.00384 32.2119 4.93757C32.6267 4.80829 33.0016 4.57901 33.3021 4.27082C33.6026 3.96263 33.8189 3.58545 33.9313 3.174C33.9882 2.96286 34.017 2.7454 34.0169 2.52703C34.016 1.85681 33.7434 1.21428 33.2588 0.740507C32.7741 0.266731 32.1171 0.000412786 31.432 0Z" fill="#191E28"/>
<path d="M32.2305 4.79126C32.2305 4.8406 32.2239 4.88974 32.2108 4.9374C32.178 5.05274 32.1075 5.15441 32.0101 5.22683C31.9126 5.29924 31.7936 5.33842 31.6712 5.33837C31.5228 5.33837 31.3806 5.28073 31.2757 5.17813C31.1708 5.07552 31.1119 4.93636 31.1119 4.79126C31.1119 4.64615 31.1708 4.50699 31.2757 4.40438C31.3806 4.30178 31.5228 4.24414 31.6712 4.24414C31.7568 4.24423 31.8412 4.26343 31.918 4.30029C31.9949 4.33716 32.0621 4.3907 32.1146 4.45685C32.19 4.55269 32.2308 4.67031 32.2305 4.79126Z" fill="#191E28"/>
<path d="M40.696 0C40.0111 0.00068838 39.3545 0.267145 38.8701 0.740907C38.3858 1.21467 38.1134 1.85703 38.1127 2.52703H38.6082C38.6088 1.98559 38.829 1.46649 39.2204 1.08368C39.6118 0.700876 40.1425 0.485639 40.696 0.485226C41.2495 0.485776 41.7802 0.701035 42.1717 1.0838C42.5632 1.46656 42.7835 1.98559 42.7844 2.52703C42.7852 2.74692 42.7493 2.96545 42.678 3.174C42.5763 3.47064 42.4064 3.74053 42.1815 3.96295C41.9565 4.18536 41.6824 4.35438 41.3803 4.45702C41.1986 4.51916 41.0089 4.55592 40.8167 4.56624V5.05198C41.0408 5.04235 41.2627 5.00388 41.4765 4.93757C41.8914 4.80838 42.2663 4.57912 42.5668 4.27092C42.8673 3.96272 43.0836 3.58549 43.1959 3.174C43.2528 2.96286 43.2816 2.7454 43.2815 2.52703C43.2808 1.85667 43.0081 1.214 42.5233 0.740177C42.0385 0.266356 41.3813 0.000137467 40.696 0Z" fill="#191E28"/>
<path d="M41.4951 4.79126C41.4949 4.84063 41.4881 4.88976 41.4749 4.9374C41.4422 5.0527 41.3718 5.15435 41.2744 5.22678C41.177 5.2992 41.0581 5.3384 40.9358 5.33837C40.7874 5.33837 40.6451 5.28075 40.5401 5.17816C40.4351 5.07557 40.3761 4.93641 40.3759 4.79126C40.3761 4.64611 40.4351 4.50694 40.5401 4.40435C40.6451 4.30176 40.7874 4.24414 40.9358 4.24414C41.0213 4.24419 41.1057 4.26338 41.1824 4.30025C41.2592 4.33712 41.3263 4.39069 41.3786 4.45685C41.4544 4.55252 41.4954 4.67022 41.4951 4.79126Z" fill="#191E28"/>
<path d="M49.9601 0C49.2751 0.000550707 48.6183 0.266946 48.1338 0.740723C47.6494 1.2145 47.377 1.85694 47.3763 2.52703H47.8723C47.873 1.98563 48.0932 1.46661 48.4846 1.08383C48.876 0.701051 49.4066 0.485776 49.9601 0.485226C50.5136 0.485639 51.0443 0.700876 51.4357 1.08368C51.8272 1.46649 52.0473 1.98559 52.0479 2.52703C52.0484 2.7469 52.0125 2.96539 51.9415 3.174C51.8397 3.47068 51.6698 3.74059 51.4447 3.963C51.2197 4.18541 50.9455 4.35441 50.6433 4.45702C50.4616 4.51931 50.2719 4.55608 50.0797 4.56624V5.05198C50.304 5.04235 50.526 5.00388 50.74 4.93757C51.155 4.80841 51.53 4.57917 51.8305 4.27097C52.1311 3.96277 52.3475 3.58553 52.4599 3.174C52.5169 2.96286 52.5456 2.7454 52.5455 2.52703C52.5447 1.85672 52.2719 1.21412 51.7872 0.740329C51.3025 0.266538 50.6453 0.000275058 49.9601 0Z" fill="#191E28"/>
<path d="M50.7591 4.79126C50.759 4.84063 50.7522 4.88976 50.7389 4.9374C50.7062 5.05279 50.6357 5.1545 50.5383 5.22693C50.4408 5.29937 50.3217 5.33851 50.1993 5.33837C50.051 5.33837 49.9087 5.28073 49.8038 5.17813C49.6989 5.07552 49.64 4.93636 49.64 4.79126C49.64 4.64615 49.6989 4.50699 49.8038 4.40439C49.9087 4.30178 50.051 4.24414 50.1993 4.24414C50.2849 4.24399 50.3693 4.2631 50.4461 4.29998C50.5229 4.33687 50.59 4.39054 50.6422 4.45685C50.7181 4.55248 50.7593 4.67016 50.7591 4.79126Z" fill="#191E28"/>
<path d="M59.2247 0C58.5397 0.000550707 57.8829 0.266946 57.3984 0.740723C56.914 1.2145 56.6415 1.85694 56.6408 2.52703H57.1363C57.137 1.98554 57.3573 1.46645 57.7488 1.08365C58.1404 0.700859 58.6711 0.485639 59.2247 0.485226C59.7781 0.485776 60.3088 0.701051 60.7002 1.08383C61.0916 1.46661 61.3118 1.98563 61.3125 2.52703C61.313 2.7469 61.2771 2.96539 61.2061 3.174C61.1042 3.47062 60.9342 3.74047 60.7092 3.96287C60.4841 4.18527 60.21 4.35431 59.9078 4.45702C59.7262 4.51926 59.5365 4.55603 59.3443 4.56624V5.05198C59.5686 5.04235 59.7906 5.00388 60.0046 4.93757C60.4194 4.80835 60.7943 4.57907 61.0946 4.27086C61.395 3.96266 61.6113 3.58545 61.7234 3.174C61.7804 2.96286 61.8092 2.7454 61.809 2.52703C61.8083 1.85685 61.5358 1.21433 61.0512 0.740539C60.5667 0.266747 59.9098 0.000412997 59.2247 0Z" fill="#191E28"/>
<path d="M60.0232 4.79126C60.0229 4.84059 60.0163 4.88969 60.0035 4.9374C59.9707 5.0527 59.9001 5.15431 59.8027 5.22672C59.7052 5.29912 59.5863 5.33834 59.4639 5.33837C59.3155 5.33837 59.1732 5.28075 59.0682 5.17816C58.9632 5.07557 58.9042 4.93641 58.9041 4.79126C58.9042 4.64611 58.9632 4.50694 59.0682 4.40435C59.1732 4.30176 59.3155 4.24414 59.4639 4.24414C59.5494 4.24419 59.6338 4.26338 59.7105 4.30025C59.7873 4.33712 59.8544 4.39069 59.9068 4.45685C59.9826 4.55252 60.0235 4.67022 60.0232 4.79126Z" fill="#191E28"/>
<path d="M68.4882 0C67.8033 0.00068838 67.1466 0.267145 66.6623 0.740907C66.178 1.21467 65.9056 1.85703 65.9049 2.52703H66.4009C66.4015 1.98568 66.6216 1.46666 67.0129 1.08386C67.4042 0.701068 67.9348 0.485777 68.4882 0.485226C69.0417 0.485639 69.5725 0.700859 69.964 1.08365C70.3555 1.46645 70.5758 1.98554 70.5765 2.52703C70.5773 2.74692 70.5414 2.96545 70.4702 3.174C70.3684 3.4706 70.1985 3.74046 69.9735 3.96286C69.7486 4.18526 69.4745 4.35431 69.1724 4.45702C68.9906 4.5192 68.8007 4.55597 68.6083 4.56624V5.05198C68.8326 5.04239 69.0547 5.00393 69.2687 4.93757C69.6835 4.80829 70.0584 4.57901 70.3588 4.27082C70.6593 3.96263 70.8757 3.58545 70.988 3.174C71.045 2.96286 71.0737 2.7454 71.0736 2.52703C71.0728 1.85672 70.8 1.21412 70.3153 0.740329C69.8306 0.266538 69.1734 0.000275058 68.4882 0Z" fill="#191E28"/>
<path d="M69.2905 4.79126C69.2903 4.84063 69.2835 4.88976 69.2703 4.9374C69.2375 5.05274 69.167 5.15441 69.0695 5.22683C68.972 5.29924 68.853 5.33842 68.7306 5.33837C68.5823 5.33837 68.44 5.28073 68.3351 5.17813C68.2303 5.07552 68.1713 4.93636 68.1713 4.79126C68.1713 4.64615 68.2303 4.50699 68.3351 4.40438C68.44 4.30178 68.5823 4.24414 68.7306 4.24414C68.8162 4.24419 68.9007 4.26338 68.9775 4.30024C69.0544 4.33711 69.1216 4.39068 69.174 4.45685C69.2498 4.55252 69.2908 4.67022 69.2905 4.79126Z" fill="#191E28"/>
<path d="M45.9764 27.5801H42.9635C42.6153 27.5801 42.2724 27.3014 42.208 26.9602L41.6269 24.013C41.5594 23.6723 41.7896 23.3936 42.1379 23.3936H45.1534C45.5016 23.3936 45.8445 23.6723 45.9089 24.013L46.49 26.9602C46.5543 27.3014 46.323 27.5801 45.9764 27.5801Z" fill="#191E28"/>
<path d="M53.5791 27.5801H50.5662C50.218 27.5801 49.8777 27.3014 49.8107 26.9602L49.2296 24.013C49.1621 23.6723 49.3923 23.3936 49.7405 23.3936H52.7561C53.1043 23.3936 53.4472 23.6723 53.5115 24.013L54.0926 26.9602C54.1575 27.3014 53.9257 27.5801 53.5791 27.5801Z" fill="#191E28"/>
<path d="M61.1817 27.5801H58.1688C57.8206 27.5801 57.4808 27.3014 57.4133 26.9602L56.8322 24.013C56.7652 23.6723 56.9949 23.3936 57.3431 23.3936H60.3587C60.7069 23.3936 61.0498 23.6723 61.1141 24.013L61.6952 26.9602C61.7601 27.3014 61.5283 27.5801 61.1817 27.5801Z" fill="#191E28"/>
<path d="M23.1679 27.5801H20.1551C19.8068 27.5801 19.4671 27.3014 19.3996 26.9602L18.8185 24.013C18.7515 23.6723 18.9812 23.3936 19.3294 23.3936H22.3455C22.6937 23.3936 23.0334 23.6723 23.1004 24.013L23.682 26.9602C23.7464 27.3014 23.5151 27.5801 23.1679 27.5801Z" fill="#191E28"/>
<path d="M19.8659 18.7317H18.5708C18.4942 18.7286 18.4207 18.7008 18.362 18.6527C18.3032 18.6045 18.2624 18.5386 18.2459 18.4654L17.996 17.199C17.9878 17.1668 17.9873 17.1332 17.9946 17.1007C18.0019 17.0683 18.0168 17.038 18.0382 17.0122C18.0595 16.9863 18.0867 16.9657 18.1176 16.9519C18.1485 16.9382 18.1822 16.9316 18.2161 16.9327H19.5107C19.5873 16.9358 19.6606 16.9636 19.7193 17.0118C19.7779 17.06 19.8186 17.1258 19.835 17.199L20.0849 18.4654C20.0933 18.4975 20.0938 18.5311 20.0866 18.5635C20.0794 18.5959 20.0646 18.6262 20.0434 18.6521C20.0221 18.6779 19.995 18.6985 19.9642 18.7123C19.9334 18.7262 19.8997 18.7328 19.8659 18.7317Z" fill="#FFCC00"/>
<path d="M30.7706 27.5801H27.7577C27.4095 27.5801 27.0697 27.3014 27.0022 26.9602L26.4211 24.013C26.3541 23.6723 26.5843 23.3936 26.9326 23.3936H29.9481C30.2963 23.3936 30.6361 23.6723 30.7036 24.013L31.2847 26.9602C31.349 27.3014 31.1177 27.5801 30.7706 27.5801Z" fill="#191E28"/>
<path d="M38.3737 27.5801H35.3608C35.0121 27.5801 34.6697 27.3014 34.6054 26.9602L34.0237 24.013C33.9568 23.6723 34.187 23.3936 34.5352 23.3936H37.5507C37.899 23.3936 38.2387 23.6723 38.3062 24.013L38.8873 26.9602C38.9516 27.3014 38.7204 27.5801 38.3737 27.5801Z" fill="#191E28"/>
<path d="M68.7843 27.5801H65.7714C65.4232 27.5801 65.0835 27.3014 65.0159 26.9602L64.4348 24.013C64.3678 23.6723 64.5975 23.3936 64.9463 23.3936H67.9613C68.3101 23.3936 68.6524 23.6723 68.7168 24.013L69.2984 26.9602C69.3627 27.3014 69.1309 27.5801 68.7843 27.5801Z" fill="#191E28"/>
<path d="M44.7137 21.1783H41.7008C41.3526 21.1783 41.0129 20.8995 40.9459 20.5588L40.3643 17.6116C40.2973 17.2709 40.5275 16.9922 40.8757 16.9922H43.8886C44.2368 16.9922 44.5766 17.2709 44.6441 17.6116L45.2252 20.5588C45.2922 20.8995 45.0625 21.1783 44.7137 21.1783Z" fill="#191E28"/>
<path d="M52.3169 21.1783H49.304C48.9553 21.1783 48.6129 20.8995 48.5485 20.5588L47.9674 17.6116C47.8999 17.2709 48.1301 16.9922 48.4784 16.9922H51.4912C51.8395 16.9922 52.1792 17.2709 52.2467 17.6116L52.8278 20.5588C52.8948 20.8995 52.6651 21.1783 52.3169 21.1783Z" fill="#191E28"/>
<path d="M59.9196 21.1783H56.9067C56.5584 21.1783 56.2155 20.8995 56.1512 20.5588L55.5701 17.6116C55.5026 17.2709 55.7328 16.9922 56.081 16.9922H59.0939C59.4421 16.9922 59.7824 17.2709 59.8494 17.6116L60.4305 20.5588C60.498 20.8995 60.2678 21.1783 59.9196 21.1783Z" fill="#191E28"/>
<path d="M67.5222 21.1783H64.5093C64.1611 21.1783 63.8181 20.8995 63.7538 20.5588L63.1727 17.6116C63.1052 17.2709 63.3354 16.9922 63.6836 16.9922H66.6965C67.0447 16.9922 67.385 17.2709 67.452 17.6116L68.0331 20.5588C68.1006 20.8995 67.8704 21.1783 67.5222 21.1783Z" fill="#191E28"/>
<path d="M47.314 34.3643H44.3027C43.9545 34.3643 43.6148 34.0855 43.5473 33.7449L42.9662 30.7976C42.8992 30.457 43.1288 30.1782 43.4771 30.1782H46.49C46.8387 30.1782 47.1811 30.457 47.2454 30.7976L47.8265 33.7449C47.8925 34.0881 47.6623 34.3643 47.314 34.3643Z" fill="#191E28"/>
<path d="M54.9167 34.3643H51.9054C51.5571 34.3643 51.2174 34.0855 51.1499 33.7449L50.5688 30.7976C50.5018 30.457 50.7315 30.1782 51.0802 30.1782H54.0931C54.4414 30.1782 54.7811 30.457 54.8486 30.7976L55.4297 33.7449C55.4951 34.0881 55.2649 34.3643 54.9167 34.3643Z" fill="#191E28"/>
<path d="M62.5193 34.3643H59.508C59.1598 34.3643 58.8201 34.0855 58.7531 33.7449L58.1715 30.7976C58.1045 30.457 58.3347 30.1782 58.6829 30.1782H61.6958C62.044 30.1782 62.3838 30.457 62.4513 30.7976L63.0324 33.7449C63.0978 34.0881 62.8681 34.3643 62.5193 34.3643Z" fill="#191E28"/>
<path d="M24.5061 34.3643H21.4948C21.1461 34.3643 20.8037 34.0855 20.7394 33.7449L20.1583 30.7976C20.0907 30.457 20.3209 30.1782 20.6692 30.1782H23.6821C24.0303 30.1782 24.37 30.457 24.4375 30.7976L25.0186 33.7449C25.084 34.0881 24.8543 34.3643 24.5061 34.3643Z" fill="#191E28"/>
<path d="M32.1087 34.3643H29.0975C28.7492 34.3643 28.4063 34.0855 28.342 33.7449L27.7609 30.7976C27.6934 30.457 27.9236 30.1782 28.2718 30.1782H31.2847C31.6329 30.1782 31.9758 30.457 32.0402 30.7976L32.6212 33.7449C32.6872 34.0881 32.457 34.3643 32.1087 34.3643Z" fill="#191E28"/>
<path d="M39.7114 34.3643H36.7001C36.3519 34.3643 36.009 34.0855 35.9446 33.7449L35.3635 30.7976C35.2966 30.457 35.5262 30.1782 35.8745 30.1782H38.8873C39.2356 30.1782 39.5785 30.457 39.6428 30.7976L40.2239 33.7449C40.2898 34.0881 40.0596 34.3643 39.7114 34.3643Z" fill="#191E28"/>
<path d="M70.1225 34.3643H67.1106C66.7619 34.3643 66.4222 34.0855 66.3552 33.7449L65.7741 30.7976C65.7066 30.457 65.9368 30.1782 66.285 30.1782H69.2979C69.6461 30.1782 69.9858 30.457 70.0533 30.7976L70.6344 33.7449C70.7004 34.0881 70.4707 34.3643 70.1225 34.3643Z" fill="#191E28"/>
<path d="M48.6522 41.1485H45.6393C45.2906 41.1485 44.9482 40.8697 44.8839 40.5291L44.3028 37.5818C44.2358 37.2412 44.466 36.9624 44.8142 36.9624H47.8271C48.1753 36.9624 48.5151 37.2412 48.5826 37.5818L49.1637 40.5291C49.2301 40.8697 49.0005 41.1485 48.6522 41.1485Z" fill="#191E28"/>
<path d="M56.2549 41.1485H53.242C52.8937 41.1485 52.5535 40.8697 52.4865 40.5291L51.9054 37.5818C51.8379 37.2412 52.0681 36.9624 52.4163 36.9624H55.4292C55.7774 36.9624 56.1177 37.2412 56.1847 37.5818L56.7658 40.5291C56.8328 40.8697 56.6031 41.1485 56.2549 41.1485Z" fill="#191E28"/>
<path d="M63.8575 41.1485H60.8446C60.4964 41.1485 60.1561 40.8697 60.0891 40.5291L59.5081 37.5818C59.4405 37.2412 59.6707 36.9624 60.019 36.9624H63.0319C63.3801 36.9624 63.7203 37.2412 63.7873 37.5818L64.3684 40.5291C64.4359 40.8697 64.2057 41.1485 63.8575 41.1485Z" fill="#191E28"/>
<path d="M25.8437 41.1485H22.8309C22.4826 41.1485 22.1397 40.8697 22.0754 40.5291L21.4948 37.5818C21.4278 37.2412 21.6575 36.9624 22.0057 36.9624H25.0186C25.3674 36.9624 25.7098 37.2412 25.7741 37.5818L26.3552 40.5291C26.4222 40.8697 26.192 41.1485 25.8437 41.1485Z" fill="#191E28"/>
<path d="M33.4464 41.1485H30.4335C30.0853 41.1485 29.7455 40.8697 29.678 40.5291L29.0974 37.5818C29.0305 37.2412 29.2601 36.9624 29.6084 36.9624H32.6218C32.97 36.9624 33.3097 37.2412 33.3767 37.5818L33.9584 40.5291C34.0248 40.8697 33.7946 41.1485 33.4464 41.1485Z" fill="#FFCC00"/>
<path d="M41.049 41.1485H38.0362C37.6879 41.1485 37.3482 40.8697 37.2807 40.5291L36.7001 37.5818C36.6331 37.2412 36.8633 36.9624 37.2116 36.9624H40.2244C40.5727 36.9624 40.9124 37.2412 40.9799 37.5818L41.561 40.5291C41.6275 40.8697 41.3978 41.1485 41.049 41.1485Z" fill="#191E28"/>
<path d="M71.4601 41.1485H68.4472C68.099 41.1485 67.7593 40.8697 67.6917 40.5291L67.1106 37.5818C67.0437 37.2412 67.2733 36.9624 67.6216 36.9624H70.6344C70.9832 36.9624 71.3229 37.2412 71.3899 37.5818L71.971 40.5291C72.0385 40.8697 71.8083 41.1485 71.4601 41.1485Z" fill="#191E28"/>
<path d="M49.9143 47.5503H46.9015C46.5532 47.5503 46.2103 47.2716 46.146 46.9309L45.5649 43.9837C45.4974 43.643 45.7276 43.3643 46.0758 43.3643H49.0876C49.4358 43.3643 49.7761 43.643 49.8431 43.9837L50.4242 46.9309C50.4928 47.2716 50.2626 47.5503 49.9143 47.5503Z" fill="#191E28"/>
<path d="M57.517 47.5503H54.5041C54.1559 47.5503 53.813 47.2716 53.7486 46.9309L53.1675 43.9837C53.1005 43.643 53.3302 43.3643 53.6785 43.3643H56.6903C57.0385 43.3643 57.3788 43.643 57.4457 43.9837L58.0268 46.9309C58.0954 47.2716 57.8652 47.5503 57.517 47.5503Z" fill="#191E28"/>
<path d="M65.1196 47.5503H62.1067C61.7585 47.5503 61.4188 47.2716 61.3513 46.9309L60.7702 43.9837C60.7032 43.643 60.9329 43.3643 61.2811 43.3643H64.2929C64.6417 43.3643 64.9814 43.643 65.0484 43.9837L65.6295 46.9309C65.698 47.2716 65.4678 47.5503 65.1196 47.5503Z" fill="#191E28"/>
<path d="M27.1059 47.5503H24.093C23.7448 47.5503 23.4051 47.2716 23.3376 46.9309L22.7565 43.9837C22.6895 43.643 22.9191 43.3643 23.2679 43.3643H26.2797C26.628 43.3643 26.9677 43.643 27.0347 43.9837L27.6163 46.9309C27.6844 47.2716 27.4542 47.5503 27.1059 47.5503Z" fill="#191E28"/>
<path d="M34.7085 47.5503H31.6956C31.3474 47.5503 31.0077 47.2716 30.9407 46.9309L30.3591 43.9837C30.2921 43.643 30.5223 43.3643 30.8705 43.3643H33.8823C34.2306 43.3643 34.5703 43.643 34.6378 43.9837L35.2189 46.9309C35.287 47.2716 35.0573 47.5503 34.7085 47.5503Z" fill="#191E28"/>
<path d="M42.3117 47.5503H39.2988C38.9506 47.5503 38.6077 47.2716 38.5433 46.9309L37.9622 43.9837C37.8947 43.643 38.1249 43.3643 38.4731 43.3643H41.485C41.8332 43.3643 42.1729 43.643 42.2404 43.9837L42.8215 46.9309C42.8896 47.2716 42.6599 47.5503 42.3117 47.5503Z" fill="#191E28"/>
<path d="M28.9975 17.5684H21.0164C20.96 17.5684 20.9059 17.5465 20.866 17.5075C20.8261 17.4685 20.8037 17.4155 20.8037 17.3604C20.8037 17.3052 20.8261 17.2523 20.866 17.2133C20.9059 17.1743 20.96 17.1523 21.0164 17.1523H28.9981C29.0545 17.1523 29.1086 17.1743 29.1484 17.2133C29.1883 17.2523 29.2107 17.3052 29.2107 17.3604C29.2107 17.3877 29.2052 17.4148 29.1945 17.4401C29.1838 17.4654 29.1681 17.4883 29.1482 17.5077C29.1284 17.527 29.1049 17.5423 29.0791 17.5527C29.0532 17.5631 29.0255 17.5685 28.9975 17.5684Z" fill="#191E28"/>
<path d="M29.2405 18.5142H21.2588C21.2024 18.5142 21.1483 18.4923 21.1084 18.4533C21.0686 18.4143 21.0462 18.3613 21.0462 18.3062C21.0462 18.251 21.0686 18.1981 21.1084 18.1591C21.1483 18.1201 21.2024 18.0981 21.2588 18.0981H29.2405C29.2969 18.0981 29.351 18.1201 29.3909 18.1591C29.4308 18.1981 29.4532 18.251 29.4532 18.3062C29.4532 18.3613 29.4308 18.4143 29.3909 18.4533C29.351 18.4923 29.2969 18.5142 29.2405 18.5142Z" fill="#191E28"/>
<path d="M20.4368 10.5288H17.6978C17.5897 10.5285 17.4862 10.4864 17.4097 10.4116C17.3333 10.3369 17.2903 10.2356 17.29 10.1299C17.2903 10.0241 17.3333 9.92277 17.4097 9.84794C17.4861 9.77311 17.5897 9.73088 17.6978 9.73047H20.4368C20.545 9.73088 20.6486 9.77309 20.7251 9.84791C20.8016 9.92273 20.8447 10.0241 20.8452 10.1299C20.8447 10.2356 20.8016 10.3369 20.7251 10.4117C20.6486 10.4864 20.545 10.5285 20.4368 10.5288Z" fill="white"/>
<path d="M27.9528 10.5288H25.2164C25.1083 10.5285 25.0048 10.4864 24.9284 10.4116C24.852 10.3369 24.8089 10.2356 24.8086 10.1299C24.8089 10.0241 24.8519 9.92277 24.9283 9.84794C25.0047 9.77311 25.1083 9.73088 25.2164 9.73047H27.9555C28.0636 9.73088 28.1672 9.77311 28.2435 9.84794C28.3199 9.92277 28.363 10.0241 28.3633 10.1299C28.3631 10.1824 28.3524 10.2345 28.3317 10.283C28.311 10.3315 28.2807 10.3755 28.2426 10.4126C28.2044 10.4496 28.1592 10.4789 28.1095 10.4989C28.0598 10.5188 28.0066 10.529 27.9528 10.5288Z" fill="white"/>
<path d="M35.4688 10.5288H32.7297C32.6217 10.5285 32.5181 10.4864 32.4417 10.4116C32.3653 10.3369 32.3223 10.2356 32.322 10.1299C32.3223 10.0241 32.3653 9.92277 32.4417 9.84794C32.5181 9.77311 32.6216 9.73088 32.7297 9.73047H35.4688C35.5769 9.73088 35.6805 9.77311 35.7569 9.84794C35.8333 9.92277 35.8763 10.0241 35.8766 10.1299C35.8763 10.2356 35.8333 10.3369 35.7569 10.4116C35.6804 10.4864 35.5769 10.5285 35.4688 10.5288Z" fill="white"/>
<path d="M42.9848 10.5288H40.2457C40.1376 10.5285 40.034 10.4864 39.9575 10.4117C39.881 10.3369 39.8378 10.2356 39.8374 10.1299C39.8378 10.0241 39.8809 9.92273 39.9574 9.84791C40.0339 9.77309 40.1375 9.73088 40.2457 9.73047H42.9848C43.0929 9.73088 43.1964 9.77311 43.2728 9.84794C43.3492 9.92277 43.3923 10.0241 43.3925 10.1299C43.3923 10.2356 43.3492 10.3369 43.2728 10.4116C43.1964 10.4864 43.0928 10.5285 42.9848 10.5288Z" fill="white"/>
<path d="M50.5002 10.5288H47.7611C47.6531 10.5285 47.5495 10.4864 47.4731 10.4116C47.3967 10.3369 47.3536 10.2356 47.3534 10.1299C47.3536 10.0241 47.3967 9.92277 47.4731 9.84794C47.5495 9.77311 47.653 9.73088 47.7611 9.73047H50.5002C50.6084 9.73088 50.712 9.77309 50.7885 9.84791C50.865 9.92273 50.9081 10.0241 50.9085 10.1299C50.9081 10.2356 50.8649 10.3369 50.7884 10.4117C50.7119 10.4864 50.6083 10.5285 50.5002 10.5288Z" fill="white"/>
<path d="M58.0162 10.5288H55.2771C55.1691 10.5285 55.0655 10.4864 54.9891 10.4116C54.9127 10.3369 54.8696 10.2356 54.8694 10.1299C54.8696 10.0241 54.9127 9.92277 54.9891 9.84794C55.0655 9.77311 55.169 9.73088 55.2771 9.73047H58.0162C58.1244 9.73088 58.228 9.77309 58.3045 9.84791C58.3809 9.92273 58.4241 10.0241 58.4245 10.1299C58.4241 10.2356 58.3809 10.3369 58.3044 10.4117C58.2279 10.4864 58.1243 10.5285 58.0162 10.5288Z" fill="white"/>
<path d="M65.5322 10.5288H62.7931C62.685 10.5285 62.5815 10.4864 62.5051 10.4116C62.4286 10.3369 62.3856 10.2356 62.3853 10.1299C62.3856 10.0241 62.4286 9.92277 62.505 9.84794C62.5814 9.77311 62.685 9.73088 62.7931 9.73047H65.5322C65.6403 9.73088 65.7438 9.77311 65.8202 9.84794C65.8966 9.92277 65.9397 10.0241 65.9399 10.1299C65.9397 10.2356 65.8966 10.3369 65.8202 10.4116C65.7438 10.4864 65.6402 10.5285 65.5322 10.5288Z" fill="white"/>
<path d="M48.2088 21.2365C47.6038 21.2365 47.1636 21.0487 46.9233 20.6842C46.4629 19.9852 46.8169 19.0054 47.9797 17.7718C48.5479 17.1813 49.1661 16.6388 49.8277 16.1502C49.8369 16.1435 49.8473 16.1387 49.8585 16.136C49.8696 16.1333 49.8811 16.1327 49.8924 16.1344C49.9038 16.1361 49.9146 16.14 49.9244 16.1458C49.9342 16.1516 49.9427 16.1593 49.9494 16.1684C49.9563 16.1774 49.9612 16.1877 49.964 16.1986C49.9668 16.2095 49.9673 16.2208 49.9656 16.232C49.9638 16.2431 49.9599 16.2537 49.9539 16.2634C49.9479 16.273 49.9401 16.2813 49.9308 16.288C49.892 16.3161 46.0753 19.0803 47.0705 20.5911C47.3853 21.0695 48.0599 21.1013 48.5714 21.0435C49.5172 20.9364 50.7512 20.4382 51.8676 19.7106C53.0266 18.9575 53.8427 18.1093 54.1075 17.3827C54.2808 16.9058 54.2271 16.5683 53.948 16.379C53.587 16.1346 52.8315 16.134 51.9304 16.379C51.0659 16.6125 50.1961 17.0332 49.6602 17.4769C49.6425 17.4915 49.6196 17.4987 49.5965 17.4968C49.5733 17.495 49.5519 17.4843 49.5369 17.467C49.522 17.4496 49.5147 17.4271 49.5167 17.4045C49.5187 17.3819 49.5298 17.361 49.5475 17.3463C50.1015 16.8876 50.9968 16.4539 51.8836 16.2141C52.8496 15.9541 53.638 15.9619 54.0474 16.2386C54.2898 16.4029 54.5259 16.7446 54.2723 17.4405C53.9953 18.2013 53.1558 19.0808 51.9649 19.8536C50.8229 20.5952 49.5613 21.1018 48.59 21.2136C48.4635 21.2283 48.3362 21.2359 48.2088 21.2365Z" fill="#C65447"/>
<path d="M64.0239 16.3781L63.7129 15.806C63.7129 15.806 63.8676 14.783 62.5576 14.1366C62.5576 14.1366 62.0791 13.9457 61.8085 14.3275C61.5597 14.6795 62.2833 14.6161 62.2444 15.2178C62.2056 15.8195 62.4975 16.1727 62.9037 16.3687L63.2397 16.7494L64.0239 16.3781Z" fill="white"/>
<path d="M58.309 14.9052L58.557 16.2153L65.2944 14.995L65.0464 13.6848L58.309 14.9052Z" fill="#C65447"/>
<path d="M56.8604 15.8484L58.5511 16.2197L58.3033 14.9097L56.8604 15.8484Z" fill="#FFD21E"/>
<path d="M65.906 13.9816L65.9847 14.3976C65.9962 14.4582 65.9955 14.5205 65.9824 14.5808C65.9694 14.6411 65.9443 14.6983 65.9086 14.7491C65.8728 14.7999 65.8272 14.8432 65.7743 14.8767C65.7214 14.9102 65.6623 14.9332 65.6003 14.9442L65.2887 15.0009L65.0404 13.6903L65.3796 13.629C65.4972 13.6077 65.6186 13.6328 65.7173 13.6989C65.8159 13.765 65.8838 13.8667 65.906 13.9816Z" fill="#FFD21E"/>
<path d="M77.0526 7.73295C77.077 7.70591 77.1323 7.68407 77.2557 7.67731C77.185 7.63839 77.1059 7.61663 77.0249 7.61385C76.9994 7.44639 76.9079 7.14943 76.6129 7.07714C76.6607 7.10468 76.7016 7.14233 76.7326 7.18732C76.7636 7.23231 76.7839 7.28351 76.7921 7.33718C76.4502 6.99341 75.7176 6.74377 73.6888 6.90031C71.0146 7.10834 71.8961 8.78142 72.2422 8.9806C72.5883 9.17979 73.4597 8.63268 74.103 8.68312C74.7463 8.73357 74.8707 9.64474 75.0897 9.76956C75.3087 9.89438 75.2221 9.67387 75.5182 9.54281C75.8143 9.41175 75.8425 9.89177 75.7569 10.2038C75.6713 10.5159 76.0759 10.9272 76.0759 10.9272L76.4874 10.494C76.8984 10.0613 77.2849 8.22702 77.0988 7.83592C77.085 7.80316 77.0685 7.7678 77.0526 7.73295Z" fill="#191E28"/>
<path d="M57.727 15.2842L57.8153 16.0575L56.8604 15.8479L57.727 15.2842Z" fill="#C65447"/>
</g>
<defs>
<clipPath id="clip0_227_329">
<rect width="78" height="57" fill="white"/>
</clipPath>
</defs>
</svg>
